<svg id="Layer_1" data-name="Layer 1" xmlns="http://www.w3.org/2000/svg" viewBox="0 0 492.6 445.7"><defs><style>.cls-1{fill:#fff;}</style></defs><title>bearcast-logo</title><path class="cls-1" d="M323.1,248.6l15.2-86.1-42.9,37.9L251.1,128l-44.7,72.3-42.3-37.8,13.9,86,9.9-5.5,34.5-19.4,28.3,25.3,28.8-25.5,33.6,18.9Zm4.5-67.8-11,54.5-17.8-29.1ZM254.5,164l15,7,11.9,19.5-26.9-12.6Zm0-7.5V146.4l8.6,14.1Zm-6.8,0-8.9,4.2,8.9-14.3Zm-15.2,14.6,15.2-7.1v14l-27.5,12.9,12.3-19.8Zm-18.8,30.2,34-15.9v16.3l-24.5,13.8L211.4,205Zm40.8-16,33.3,15.6,2.5,4.1-11.6,10.3-24.2-13.6V185.3Zm-80.1-4.5,28.4,25.4-18,29.1Zm20.8,50.4,12.7-20.5,9.2,8.2Zm52.5-21.8v27.9l-19.2-17.1Zm6.8,27.2V209.4L273.3,220Zm30.3-17.9,9-7.9,12.1,19.8ZM261.9,105.2a10.6,10.6,0,1,1-10.6-10.6A10.54,10.54,0,0,1,261.9,105.2Zm94.7,42.1A10.6,10.6,0,1,1,346,136.7,10.54,10.54,0,0,1,356.6,147.3ZM156.5,136.7a10.6,10.6,0,1,1-10.6,10.6A10.54,10.54,0,0,1,156.5,136.7ZM250,324.8c-82,0-148.8-66.7-148.8-148.8S168,27.3,250,27.3,398.8,94,398.8,176.1C398.8,258,332,324.8,250,324.8ZM250,40c-75,0-136,61-136,136s61,136,136,136,136-61,136-136S325,40,250,40ZM36.3,406.6v13.8c0,9.3-4.6,13.9-13.9,13.9H3.7V359.5H22.2c9.3,0,13.9,4.6,13.9,13.9v11c0,6.6-2.2,9.9-6.3,11.4C34.1,397.4,36.3,400.6,36.3,406.6Zm-15.8-37H15v21.8h5c3.2,0,4.7-1.6,4.7-4.7V373.9C24.7,371,23.3,369.6,20.5,369.6ZM15,424.3h5.7c2.9,0,4.3-1.4,4.3-4.3V405.8c0-3.2-1.5-4.7-4.7-4.7H15Zm53.1-64.8v10.4h-14V391H67.6v10.4H54.1V424H68.3v10.4H42.7V359.6H68.1Zm40.5,74.8H97.3l-1.5-11.8H83.9l-1.4,11.8H72l10.7-74.9H97.9ZM85.2,412.4h9.3l-4.7-37.8Zm60.9-3.5v25.4H134.7V409.1c0-3.3-1.5-4.8-4.8-4.8h-5.1v30H113.4V359.5h18.8c9.3,0,13.9,4.6,13.9,13.9v14.1c0,6.6-2.3,9.8-6.5,11.5C144.2,400.3,146.1,403.2,146.1,408.9Zm-15.8-39.2h-5.6v24.7h5.1c3.2,0,4.7-1.5,4.7-4.6V374C134.6,371.1,133.2,369.7,130.3,369.7Zm55.7,34v17.4c0,9.3-4.6,13.9-13.9,13.9h-5.7c-9.3,0-13.9-4.6-13.9-13.9V372.8c0-9.3,4.6-13.9,13.9-13.9H172c9.3,0,13.8,4.5,13.8,13.8V388H174.6V373.4c0-3-1.4-4.4-4.3-4.4h-1.9c-3,0-4.4,1.4-4.4,4.4v47.2c0,3,1.4,4.4,4.4,4.4h2.1c2.9,0,4.3-1.4,4.3-4.4V403.7Zm40.4,30.6H215.1l-1.5-11.8H201.7l-1.4,11.8H189.7l10.7-74.9h15.2ZM203,412.4h9.3l-4.7-37.8Zm59.9-3.5v12.2c0,9.3-4.6,13.9-13.9,13.9h-5c-9.3,0-13.8-4.6-13.8-13.8V405.4h11.1v15.4c0,2.9,1.4,4.3,4.4,4.3h1.5c3,0,4.4-1.4,4.4-4.3V410.5c0-3.1-1.1-4.5-3.2-6.1L236.9,396c-5.1-3.6-6.6-7.2-6.6-12.9V372.8c0-9.3,4.6-13.9,13.9-13.9H249q13.8,0,13.8,13.8v13.6H251.6V373.2c0-2.9-1.4-4.3-4.3-4.3h-1.4c-2.9,0-4.3,1.4-4.3,4.3v8.3a6.55,6.55,0,0,0,3.2,6.1l11.5,8.4C261.3,399.6,262.9,402.8,262.9,408.9Zm13.3,25.4V369.9H265.9V359.5h32v10.4H287.6v64.4Zm88.4-74.8v74.8H353.4V377.4l-8.1,56.9H334l-8.2-57.6v57.6H316V359.5h17l7.2,54.4,7.4-54.4Zm32.2,0v10.4h-14V391h13.5v10.4H382.8V424H397v10.4H371.4V359.6h25.4Zm6.3,0h17.2c11.1,0,16.3,5.3,16.3,16.3V418c0,11-5.2,16.3-16.3,16.3H403.1Zm11.5,64.8h4.2c4.5,0,6.5-2.1,6.5-6.6V376.2c0-4.5-2-6.6-6.5-6.6h-4.2Zm40.3,10H443.5V359.5h11.4Zm41.4,0H485l-1.5-11.8H471.6l-1.4,11.8H459.6l10.7-74.9h15.2Zm-23.4-21.9h9.3l-4.7-37.8ZM61.5,457.3v9.3a6,6,0,0,1-1.6,4.6,6.9,6.9,0,0,1-4.8,1.5,7,7,0,0,1-4.9-1.5c-1.1-1-1.6-2.5-1.6-4.6v-9.3h3.2v8.8a4.45,4.45,0,0,0,.8,2.8,3.09,3.09,0,0,0,2.4.9,3.33,3.33,0,0,0,2.5-.9,3.91,3.91,0,0,0,.8-2.8v-8.8Zm7.5,15v-15h3.3l6.6,8.7a4.37,4.37,0,0,1,.6,1,12.62,12.62,0,0,1,.7,1.6c-.1-.4-.1-.9-.2-1.3s-.1-1-.1-1.6v-8.4H83v15H80l-6.8-8.9a4.37,4.37,0,0,1-.6-1,12.62,12.62,0,0,1-.7-1.6c.1.4.1.9.2,1.3s.1,1,.1,1.7v8.6H69Zm21.8,0v-15H94v15Zm14.6,0-5.5-15h3.5l2.9,9.3c.1.2.1.6.3,1.1s.2,1.1.4,1.8c.1-.6.2-1.2.3-1.7a10.38,10.38,0,0,1,.3-1.2l3-9.2h3.5l-5.6,15h-3.1Zm14.4,0v-15h8.8V460H123v3.1h5.6v2.7H123v3.8h5.6v2.7Zm27,0h-3.7l-3.9-7v7H136v-15h4.6a6.08,6.08,0,0,1,4.1,1.1,3.88,3.88,0,0,1,1.4,3.2,3.92,3.92,0,0,1-.9,2.6,3.59,3.59,0,0,1-2.4,1.3Zm-7.6-8.6h.5a6.55,6.55,0,0,0,2.6-.4,2.18,2.18,0,0,0-.1-3.1,4.68,4.68,0,0,0-2.5-.5h-.5v4Zm12.7,6.7,1.8-2a2.76,2.76,0,0,0,1.1,1.3,3.37,3.37,0,0,0,1.7.5,3.2,3.2,0,0,0,1.8-.5,1.91,1.91,0,0,0,.7-1.4c0-.7-.7-1.4-2.2-2.1a5.42,5.42,0,0,1-1.1-.6,7.83,7.83,0,0,1-2.7-2,3.73,3.73,0,0,1,.7-5.3,6,6,0,0,1,3.8-1.2,5.21,5.21,0,0,1,2.3.5,4,4,0,0,1,1.7,1.5l-1.9,1.8a2.19,2.19,0,0,0-.9-1,2.77,2.77,0,0,0-1.3-.3,2.46,2.46,0,0,0-1.5.5,1.43,1.43,0,0,0-.6,1.2c0,.8.8,1.5,2.3,2.2a4.88,4.88,0,0,1,.7.3,7,7,0,0,1,2.8,2,3.84,3.84,0,0,1,.9,2.5,4.6,4.6,0,0,1-1.4,3.4,5.9,5.9,0,0,1-3.9,1.3,7.31,7.31,0,0,1-3-.6A6.68,6.68,0,0,1,151.9,470.4Zm17,1.9v-15h3.2v15Zm16.4-12.2v12.3h-3.2V460.1h-3.7v-2.7H189v2.7Zm13.1,12.2v-6.8l-5.1-8.1h3.8l2.2,4.1a6.89,6.89,0,0,1,.3.8,7.6,7.6,0,0,0,.4,1.1c.1-.3.2-.7.3-1s.3-.6.4-.9l2.2-4.1h3.7l-5.1,8.1v6.8Zm39.8-7.4a7.31,7.31,0,0,1-.6,3,7.39,7.39,0,0,1-1.7,2.5,10.57,10.57,0,0,1-2.6,1.7,8,8,0,0,1-3,.6,8.57,8.57,0,0,1-2.7-.5,9.21,9.21,0,0,1-2.4-1.3,7.29,7.29,0,0,1-2.2-2.7,7.73,7.73,0,0,1-.8-3.4,7.31,7.31,0,0,1,.6-3,8.52,8.52,0,0,1,1.7-2.5,9,9,0,0,1,2.6-1.7,8.15,8.15,0,0,1,3.1-.6,7.65,7.65,0,0,1,3,.6,7.82,7.82,0,0,1,2.6,1.7,7,7,0,0,1,1.7,2.5A6.7,6.7,0,0,1,238.2,464.9Zm-8,5a4.6,4.6,0,0,0,3.4-1.4,4.84,4.84,0,0,0,1.3-3.6,5.66,5.66,0,0,0-1.3-3.6,4.27,4.27,0,0,0-3.3-1.5,4.6,4.6,0,0,0-3.4,1.4,5.63,5.63,0,0,0,0,7.2A4,4,0,0,0,230.2,469.9Zm14.9,2.4v-15h8.8V460h-5.6v3.1h5.6v2.7h-5.6v6.5Zm38.2-11.1a7.57,7.57,0,0,0-2-1.3,5.38,5.38,0,0,0-2.2-.4,5.22,5.22,0,0,0-3.8,1.4,5.46,5.46,0,0,0-1.4,3.9,5.32,5.32,0,0,0,1.3,3.8,4.9,4.9,0,0,0,3.6,1.4,6.05,6.05,0,0,0,2.4-.4,8,8,0,0,0,2.1-1.3v3.3a9.49,9.49,0,0,1-2.1.9,9.28,9.28,0,0,1-2.4.3,8,8,0,0,1-5.9-2.2,7.76,7.76,0,0,1-2.3-5.7,7.38,7.38,0,0,1,2.3-5.6,8,8,0,0,1,5.9-2.2,9.86,9.86,0,0,1,2.4.3,8.26,8.26,0,0,1,2.2.8Zm7.2,11.1v-15h3.2v15Zm10.9,0v-15h3.3l6.6,8.7a4.37,4.37,0,0,1,.6,1,12.62,12.62,0,0,1,.7,1.6c-.1-.4-.1-.9-.2-1.3v-10h3.1v15h-3.1l-6.8-8.9a4.37,4.37,0,0,1-.6-1,12.62,12.62,0,0,1-.7-1.6c.1.4.1.9.2,1.3s.1,1,.1,1.7v8.6h-3.2Zm33.7-11.1a7.57,7.57,0,0,0-2-1.3,5.38,5.38,0,0,0-2.2-.4,5.22,5.22,0,0,0-3.8,1.4,5.07,5.07,0,0,0-1.4,3.9,5.32,5.32,0,0,0,1.3,3.8,4.9,4.9,0,0,0,3.6,1.4,6.05,6.05,0,0,0,2.4-.4,8,8,0,0,0,2.1-1.3v3.3a9.49,9.49,0,0,1-2.1.9,8.75,8.75,0,0,1-2.4.3,8,8,0,0,1-5.9-2.2,7.76,7.76,0,0,1-2.3-5.7,7.38,7.38,0,0,1,2.3-5.6,8,8,0,0,1,5.9-2.2,9.86,9.86,0,0,1,2.4.3,8.26,8.26,0,0,1,2.2.8Zm7.3,11.1v-15h3.2v15Zm10.8,0v-15h3.3l6.6,8.7a4.37,4.37,0,0,1,.6,1,12.62,12.62,0,0,1,.7,1.6c-.1-.4-.1-.9-.2-1.3v-10h3.1v15h-3.1l-6.8-8.9a4.37,4.37,0,0,1-.6-1,12.62,12.62,0,0,1-.7-1.6c.1.4.1.9.2,1.3v10.3h-3.1Zm21.7,0v-15h3.3l6.6,8.7a4.37,4.37,0,0,1,.6,1,12.62,12.62,0,0,1,.7,1.6c-.1-.4-.1-.9-.2-1.3v-10H389v15h-3.1l-6.8-8.9a4.37,4.37,0,0,1-.6-1,12.62,12.62,0,0,1-.7-1.6c.1.4.1.9.2,1.3v10.3h-3.1Zm19.9,0,5.7-15h3.7l5.8,15h-3.6l-1.2-3.2h-5.8l-1,3.2Zm9.5-5.7-1.7-4.8a4.08,4.08,0,0,0-.2-.7,5.07,5.07,0,0,1-.2-1.3c-.1.5-.2.9-.3,1.3a4.54,4.54,0,0,1-.2.8l-1.6,4.8h4.2Zm15.9-6.5v12.3H417V460.1h-3.7v-2.7h10.5v2.7Zm10,12.2v-15h3.2v15Z" transform="translate(-3.7 -27.3)"/></svg>