<?xml version="1.0" encoding="UTF-8"?>
<svg viewBox="0 0 130 59" version="1.1" xmlns="http://www.w3.org/2000/svg" xmlns:xlink="http://www.w3.org/1999/xlink">
  <!-- Generator: Sketch 64 (93537) - https://sketch.com -->
  <title>atom / logo temp</title>
  <desc>Created with Sketch.</desc>
  <g id="Symbols" stroke="none"  fill="none" fill-rule="evenodd">
    <g id="atom-/-CTI-Logo---Primary">
      <g id="cti-logo">
        <path d="M67,30.3846154 C67,39.2051282 73.1127349,44.9487179 83.0334029,45 C83.7849687,45 84.4864301,45 85.0375783,44.9487179 C86.8914405,44.8974359 88.7453027,44.7948718 90.4488518,44.3333333 L90.4488518,39.7179487 C90.4488518,39.6666667 90.348643,39.6666667 90.348643,39.7179487 C90.2484342,39.9230769 89.9979123,40.4358974 89.4968685,41 C88.1941545,42.4358974 85.9895616,43.4615385 83.1336117,43.4615385 C76.5699374,43.4615385 70.8580376,39.7179487 70.6075157,29.9230769 C70.4070981,20.7948718 75.0668058,16.2307692 82.4321503,16.2307692 C88.6450939,16.2307692 90.5490605,19.7692308 90.8997912,20.4871795 C90.8997912,20.5384615 91,20.5384615 91,20.4871795 L91,15.9230769 C88.2943633,15.2564103 85.3382046,15 82.5824635,15 C72.8121086,15.0512821 67,21 67,30.3846154" id="Path" fill="#fff" fill-rule="nonzero"></path>
        <path d="M129.965148,43.7957746 C127.152984,43.540493 126.304029,42.9788732 126.304029,38.7922535 C126.304029,35.8309859 126.304029,21.6883803 126.304029,20.2077465 C126.304029,16.0721831 127.206044,15.5105634 129.965148,15.2042254 C130.018207,15.2042254 130.018207,15 129.912088,15 L119.087912,15 C118.981793,15 118.981793,15.153169 119.034852,15.2042254 C121.847016,15.459507 122.695971,16.0211268 122.695971,20.2077465 C122.695971,23.4242958 122.695971,37.1073944 122.695971,38.7922535 C122.695971,42.9278169 121.793956,43.4894366 119.034852,43.7957746 C118.981793,43.7957746 118.981793,44 119.087912,44 L129.912088,44 C130.018207,44 130.018207,43.7957746 129.965148,43.7957746" id="Path" fill="#fff" fill-rule="nonzero"></path>
        <path d="M94,15 L94,19.9947276 C94,20.0456942 94.1025641,19.9947276 94.1538462,19.9947276 C94.3076923,19.6379613 95.0769231,17.599297 98.1538462,16.7838313 C101.076923,16.0702988 103.333333,16.3251318 103.333333,16.3251318 C103.333333,16.3251318 103.333333,34.9279438 103.282051,38.801406 C103.230769,42.9297012 102.410256,43.4903339 99.7435897,43.7961336 C99.6923077,43.7961336 99.6923077,44 99.7948718,44 C100.461538,44 109.641026,44 110.25641,44 C110.358974,44 110.358974,43.8471002 110.307692,43.7961336 C107.589744,43.5413005 106.769231,42.9806678 106.769231,38.801406 C106.717949,34.9789104 106.717949,16.3251318 106.717949,16.3251318 C106.717949,16.3251318 109.025641,16.0702988 111.897436,16.7838313 C115.076923,17.5483304 115.794872,19.6379613 115.897436,19.9947276 C115.897436,20.0456942 116,20.0456942 116,19.9947276 L116,15 C116,15 94,15 94,15" id="Path" fill="#fff" fill-rule="nonzero"></path>
        <path d="M49.1650289,26.4527972 C47.7604046,25.0367133 45.8875723,24.25 43.9106936,24.25 C41.933815,24.25 40.217052,24.9318182 36.6794798,28.3933566 L33.35,31.75 L36.367341,34.791958 L36.6794798,35.1066434 C40.1130058,38.5681818 41.8817919,39.25 43.9106936,39.25 C45.8875723,39.25 47.7083815,38.4632867 49.1650289,37.0472028 C50.5696532,35.6311189 51.35,33.743007 51.35,31.75 C51.35,29.756993 50.5696532,27.8688811 49.1650289,26.4527972" id="Path" fill="#fff" fill-rule="nonzero"></path>
        <path d="M22.3705202,23.7433566 C18.9369942,20.2818182 17.1682081,19.6 15.1393064,19.6 C13.1624277,19.6 11.3416185,20.3867133 9.8849711,21.8027972 C8.48034682,23.2188811 7.7,25.106993 7.7,27.1 C7.7,29.093007 8.48034682,30.9286713 9.8849711,32.3972028 C11.2895954,33.8132867 13.1624277,34.6 15.1393064,34.6 C17.116185,34.6 18.832948,33.9181818 22.3705202,30.4566434 L25.7,27.1 L22.682659,24.058042 L22.3705202,23.7433566 Z" id="Path" fill="#fff" fill-rule="nonzero"></path>
        <path d="M43.7709402,41.4512821 C40.7957265,41.4512821 38.5264957,40.1905983 34.9965812,36.7111111 L34.6940171,36.408547 L31.7692308,33.4837607 L20.1709402,45.182906 L18.3555556,43.3675214 L30.0042735,31.7188034 L27.2307692,28.8948718 L24.0034188,32.0717949 C20.5239316,35.5512821 18.2042735,36.8119658 15.2290598,36.8119658 C12.6068376,36.8119658 10.1863248,35.8034188 8.37094017,33.9376068 C6.45470085,32.0717949 5.44615385,29.7017094 5.44615385,27.0794872 C5.44615385,24.457265 6.45470085,22.0367521 8.32051282,20.2213675 C10.1863248,18.4059829 12.6068376,17.3974359 15.2290598,17.3974359 C18.2042735,17.3974359 20.4735043,18.6581197 24.0034188,22.1376068 L27.2307692,25.3649573 L36.9632479,15.6324786 L35.2487179,13.8675214 L40.442735,13.8675214 L40.442735,19.0615385 L38.7282051,17.3974359 L28.9957265,27.0794872 L31.8700855,29.9538462 L35.0974359,26.7264957 C38.5769231,23.2470085 40.8965812,21.9863248 43.8717949,21.9863248 C46.4940171,21.9863248 48.9145299,22.9948718 50.7299145,24.8606838 C52.5957265,26.7264957 53.6042735,29.0965812 53.6042735,31.7188034 C53.6042735,34.3410256 52.5957265,36.7615385 50.7299145,38.5769231 C48.8136752,40.442735 46.3931624,41.4512821 43.7709402,41.4512821 M29.5,0 C13.2119658,0 0,13.2119658 0,29.5 C0,45.7880342 13.2119658,59 29.5,59 C45.7880342,59 59,45.7880342 59,29.5 C59,13.2119658 45.8384615,0 29.5,0" id="Shape" fill="#fff" fill-rule="nonzero"></path>
      </g>
    </g>
  </g>
</svg>
