<?xml version="1.0" encoding="utf-8"?>
<!-- Generator: Adobe Illustrator 25.0.1, SVG Export Plug-In . SVG Version: 6.00 Build 0)  -->
<svg version="1.1" id="Layer_1" xmlns="http://www.w3.org/2000/svg" xmlns:xlink="http://www.w3.org/1999/xlink" x="0px" y="0px"
	 viewBox="0 0 470 179" style="enable-background:new 0 0 470 179;" xml:space="preserve">
<style type="text/css">
	.st0{fill:#FFFFFF;}
</style>
<desc>Created with Sketch.</desc>
<g id="Narrative">
	<g id="wordmark_logo">
		<path id="Shape" class="st0" d="M214.5,129h-2.6c-2.7-22.1-21.5-38.7-43.8-38.8h-66.8l0,0L95.2,101l0,0c3.1,5.2,6.3,10.7,9.5,16.1
			c2.4,4,4.7,8,7,11.9l0,0l7.4,12.2c6.9,11.2,13.1,20.2,17.9,24.5c9.2,8.3,19.9,12.8,31,12.8c22.3,0,41.1-16.6,43.8-38.8h2.6
			c3,0,5.4-2.4,5.4-5.4C219.8,131.4,217.4,129,214.5,129L214.5,129L214.5,129z M168.1,167.8c-10.6,0-18.8-5.4-23.8-10
			c-3.3-3-8-9.7-13.3-18h70C198.3,155.9,184.4,167.7,168.1,167.8L168.1,167.8z M124.3,129c-3.4-5.7-6.9-11.7-10.3-17.4
			c-2.1-3.6-4.2-7.2-6.3-10.6H168c16.3,0,30.3,11.9,32.9,28H124.3z"/>
		<path id="Shape_1_" class="st0" d="M51.8,129c-16.3,0-30.3-11.9-32.9-28h76.4l6.1-10.8C94.2,78.6,87.8,69,83,64.3
			c-8.3-8.2-19.5-12.8-31.2-12.9C29.5,51.5,10.8,68.1,8,90.2H5.4c-3,0-5.4,2.4-5.4,5.4s2.4,5.4,5.4,5.4H8
			c2.7,22.1,21.5,38.7,43.8,38.8h66.5l0.9,1.5l-7.4-12.2h-60V129z M51.8,62.2c8.9,0.1,17.4,3.6,23.7,9.8c3.3,3.2,7.9,9.9,13.2,18.2
			H18.9C21.5,74.1,35.5,62.2,51.8,62.2L51.8,62.2z"/>
		<path id="Shape_2_" class="st0" d="M148.3,80.5c-6.7,4-14.3,6.1-22.1,6c-7.7,0-15.2-2.1-21.7-6.2C95.7,74.5,90.4,64.6,90.4,54
			c0-8.2,3.2-16.5,9.5-21.9c3.5-3.1,11.9-8.4,24.4-8.4c4.5,0,17.2,0.7,26.7,10.5c2.7,2.7,4.8,5.8,6.4,9.3c1.4,3.2,2.2,6.1,2.8,12.8
			H98.7c1.1,15.4,13.8,23.4,28.3,23.4c9.6,0.2,18.7-4.1,24.5-11.7c0.7-1,1.2-1.7,2.4-3.6l6.2,4.5C157,73.3,153,77.3,148.3,80.5z
			 M140.5,34.8c-3.1-1.9-8.1-4.5-16.7-4.5c-6.7,0-12.5,1.6-17.6,6.2c-2.1,2-3.9,4.3-5.3,6.8c-0.9,1.9-1.6,3.8-1.9,5.9h51.6
			C149.4,43.2,145.8,38,140.5,34.8z"/>
		<path id="Path" class="st0" d="M226.4,84.9V50.4c0-5-1-9.3-4.8-13c-3.5-3.4-10-6-20.7-6c-9.4,0-14.8,2.3-18.3,4.3
			c-2.6,1.5-4.7,3.5-6.4,6c-1.5,2.6-2.3,5.6-2.2,8.7v34.5h-7.9V25.5h7.9l0.1,8.3c1.5-1.6,3.1-3.1,4.9-4.3c4-2.5,11.4-5.6,22.9-5.6
			c4,0,8.1,0.4,12,1.3c3,0.7,13.5,3.1,17.9,12.7c2.2,4.7,2.4,9.3,2.4,14.2v32.8H226.4z"/>
		<path id="Shape_3_" class="st0" d="M309.9,71.8c-4.2,6-14.2,14.8-32.6,14.8c-3.1,0-6.3-0.2-9.4-0.8c-4-0.7-15.4-3.1-22.6-13.6
			c-3.4-5-5.2-10.9-5.2-17c0.1-3.7,0.7-7.3,1.9-10.8c3.7-10.1,12.3-15,15.5-16.6c3.2-1.6,11.3-4.3,21.4-4.2
			c3.6,0.1,15.5,0.5,24.8,8.1c9.9,8.1,11.1,19.6,11.1,24.1C314.9,61.4,313.1,67,309.9,71.8z M303.7,44.5
			c-6.6-14-22.9-14.5-26.7-14.4c-2.4,0-10.7,0.6-17.4,5c-3.6,2.4-10.3,8.5-10.3,20.2c0,2.3,0.4,9.3,4.8,14.9
			c5.3,7,14.9,9.6,23.2,9.6c3.6,0,15.4-0.1,23.2-9c3.7-4.4,5.6-9.9,5.6-15.6C306,51.5,305.2,47.9,303.7,44.5L303.7,44.5z"/>
		<path id="Shape_4_" class="st0" d="M380.7,84.9v-9c-1.3,1.5-2.7,2.8-4.2,4c-3.6,2.8-11.3,6.7-22.9,6.7s-24.3-4.7-31-14.7
			c-3.4-5.1-5.2-11.1-5.1-17.2c0.1-20.3,18-31.1,36.6-31.1c3,0,12.6,0.2,20.8,5.5c2.4,1.4,4.4,3.4,5.8,5.8V0h7.9v84.9H380.7z
			 M377,40.4c-0.8-1.2-1.8-2.3-2.9-3.1c-7.8-6.9-18.3-7-21.3-6.9c-3.5,0.2-6.9,0.9-10.2,2c-14.3,5.2-16.1,17.2-16.1,22.7
			c0,3.8,0.9,7.6,2.6,11.1c6.6,13.1,22,13.5,25.6,13.5c7.8,0,17.2-2.7,22-9.4c4.1-5.8,4-14.1,4-15.8C380.7,49.8,379.8,44.5,377,40.4
			z"/>
		<path id="Shape_5_" class="st0" d="M464.9,71.8c-4.2,6-14.2,14.8-32.6,14.8c-3.1,0-6.3-0.2-9.4-0.8c-4-0.7-15.4-3.1-22.6-13.6
			c-3.4-5-5.2-10.9-5.2-17c0-3.7,0.7-7.3,1.9-10.8c3.7-10.1,12.3-15,15.5-16.6c3.2-1.6,11.3-4.3,21.4-4.2c3.6,0.1,15.5,0.5,24.8,8.1
			c9.9,8.1,11.1,19.6,11.1,24.1C469.8,61.4,468.1,67,464.9,71.8z M458.6,44.5c-6.6-14-22.9-14.5-26.7-14.4c-2.4,0-10.7,0.6-17.4,5
			c-3.6,2.4-10.4,8.5-10.4,20.2c0,2.3,0.4,9.3,4.8,14.9c5.3,7,14.9,9.6,23.2,9.6c3.6,0,15.4-0.1,23.2-9c3.7-4.4,5.6-9.9,5.5-15.6
			C460.9,51.5,460.2,47.8,458.6,44.5L458.6,44.5z"/>
	</g>
</g>
</svg>
