<?xml version="1.0" encoding="utf-8"?>
<!-- Generator: Adobe Illustrator 24.0.0, SVG Export Plug-In . SVG Version: 6.00 Build 0)  -->
<svg version="1.1" id="Layer_1" xmlns="http://www.w3.org/2000/svg" xmlns:xlink="http://www.w3.org/1999/xlink" x="0px" y="0px"
	 viewBox="0 0 109 65" style="enable-background:new 0 0 109 65;" xml:space="preserve">
<style type="text/css">
	.st0{filter:url(#Adobe_OpacityMaskFilter);}
	.st1{fill-rule:evenodd;clip-rule:evenodd;fill:#FFFFFF;}
	.st2{mask:url(#mask-2_1_);fill-rule:evenodd;clip-rule:evenodd;fill:#FFFFFF;}
	.st3{filter:url(#Adobe_OpacityMaskFilter_1_);}
	.st4{mask:url(#mask-4_1_);fill-rule:evenodd;clip-rule:evenodd;fill:#FFFFFF;}
</style>
<title>EyeMed Logo - Color</title>
<desc>Created with Sketch.</desc>
<g>
	<g id="navigation-_x2F_-desktop-_x2F_-full-copy" transform="translate(-156.000000, -22.000000)">
		<g id="EyeMed-Logo-_x2F_-color" transform="translate(156.000000, 21.000000)">
			<g>
				<g>
					<g transform="translate(103.565074, 0.943294)">
						<g id="Clip-2">
						</g>
						<defs>
							<filter id="Adobe_OpacityMaskFilter" filterUnits="userSpaceOnUse" x="0.49" y="0.15" width="4.57" height="4.55">
								<feColorMatrix  type="matrix" values="1 0 0 0 0  0 1 0 0 0  0 0 1 0 0  0 0 0 1 0"/>
							</filter>
						</defs>
						<mask maskUnits="userSpaceOnUse" x="0.49" y="0.15" width="4.57" height="4.55" id="mask-2_1_">
							<g class="st0">
								<polygon id="path-1_1_" class="st1" points="0.49,0.15 5.06,0.15 5.06,4.71 0.49,4.71 								"/>
							</g>
						</mask>
						<path id="Fill-1" class="st2" d="M2.99,1.63c0.54,0,0.53,0.75-0.01,0.75H2.34V1.63H2.99z M3.21,2.7
							c0.91-0.15,0.81-1.48-0.22-1.48H1.9v2.34h0.44V2.75h0.41l0.66,0.81h0.48V3.48L3.21,2.7L3.21,2.7z M0.97,2.42
							c0,1.04,0.65,1.86,1.81,1.86c1.15,0,1.81-0.82,1.81-1.85c0-1.04-0.66-1.86-1.81-1.86c-1.15,0-1.81,0.82-1.81,1.87V2.42z
							 M5.06,2.43c0,1.23-0.82,2.28-2.29,2.28c-1.46,0-2.29-1.04-2.29-2.28c0-1.24,0.82-2.28,2.29-2.28
							C4.24,0.15,5.06,1.19,5.06,2.43z"/>
					</g>
					<path id="Fill-4" class="st1" d="M62.08,17.99c-1.43,1.41-3.2,2.39-5.12,2.88v11.34h-5.75V20.86
						c-1.91-0.49-3.66-1.46-5.09-2.86L30.29,1.97h8.33L50.28,13.9c1.01,1,2.37,1.54,3.82,1.54c1.45,0,2.81-0.55,3.82-1.55
						L70.18,1.97h8.32L62.08,17.99z M18,6.73c4.84,0,9.05,2.18,11.21,5.37c-2.17,2.45-6.44,4.17-11.21,4.17
						c-4.78,0-9.04-1.71-11.21-4.17C8.94,8.9,13.16,6.73,18,6.73z M18,21.44c4.63,0,9.02-1.24,12.35-3.5
						c0.12-0.08,0.23-0.16,0.35-0.24c2.11-1.5,3.63-3.33,4.49-5.34c-0.87-2.42-2.45-4.62-4.63-6.44c-0.38-0.32-0.77-0.61-1.17-0.9
						C26.18,2.77,22.19,1.55,18,1.55c-4.2,0-8.19,1.22-11.39,3.46C6.2,5.3,5.81,5.59,5.43,5.91c-2.18,1.82-3.75,4.02-4.63,6.44
						C0.28,13.82,0,15.36,0,16.94c0,4.2,1.93,8.11,5.43,11.03c3.38,2.81,7.84,4.36,12.56,4.36c4.73,0,9.19-1.55,12.56-4.36
						c0.69-0.58,1.32-1.19,1.89-1.83c-0.75-0.37-1.46-0.78-2.12-1.23c-0.82-0.55-1.55-1.15-2.19-1.78c-2.33,2.45-6,4.03-10.13,4.03
						c-6.71,0-12.22-4.18-12.7-9.46c0.11,0.08,0.23,0.16,0.35,0.24C8.98,20.2,13.37,21.44,18,21.44z M90.77,6.73
						c4.84,0,9.05,2.18,11.21,5.37c-2.18,2.45-6.44,4.17-11.21,4.17c-4.77,0-9.04-1.71-11.21-4.17C81.72,8.9,85.93,6.73,90.77,6.73z
						 M90.77,21.44c4.63,0,9.02-1.24,12.35-3.5c0.11-0.08,0.23-0.16,0.35-0.24c2.11-1.5,3.64-3.33,4.49-5.34
						c-0.87-2.42-2.45-4.62-4.63-6.44c-0.38-0.32-0.77-0.61-1.17-0.9c-3.2-2.24-7.19-3.46-11.39-3.46c-4.2,0-8.19,1.22-11.39,3.46
						c-0.4,0.28-0.8,0.58-1.17,0.9c-2.18,1.82-3.75,4.02-4.63,6.44c-0.53,1.47-0.8,3.01-0.8,4.58c0,4.2,1.93,8.11,5.43,11.03
						c3.38,2.81,7.84,4.36,12.56,4.36c4.73,0,9.19-1.55,12.56-4.36c0.69-0.58,1.32-1.19,1.89-1.83c-0.75-0.37-1.45-0.78-2.12-1.23
						c-0.82-0.55-1.55-1.15-2.2-1.78c-2.32,2.45-6,4.03-10.13,4.03c-6.71,0-12.22-4.18-12.7-9.46c0.12,0.08,0.23,0.16,0.35,0.24
						C81.75,20.2,86.14,21.44,90.77,21.44z"/>
					<g transform="translate(0.000000, 30.554901)">
						<g id="Clip-7">
						</g>
						<defs>
							<filter id="Adobe_OpacityMaskFilter_1_" filterUnits="userSpaceOnUse" x="0.44" y="1.03" width="106.93" height="34.06">
								<feColorMatrix  type="matrix" values="1 0 0 0 0  0 1 0 0 0  0 0 1 0 0  0 0 0 1 0"/>
							</filter>
						</defs>
						<mask maskUnits="userSpaceOnUse" x="0.44" y="1.03" width="106.93" height="34.06" id="mask-4_1_">
							<g class="st3">
								<polygon id="path-3_1_" class="st1" points="0.44,1.03 107.37,1.03 107.37,35.1 0.44,35.1 								"/>
							</g>
						</mask>
						<path id="Fill-6" class="st4" d="M90.18,29.92c-7.02,0-12.74-4.58-12.74-10.21c0-5.63,5.72-10.21,12.74-10.21
							c7.02,0,12.74,4.58,12.74,10.21C102.92,25.34,97.2,29.92,90.18,29.92z M102.01,8.1L102.01,8.1
							c-3.28-2.45-7.44-3.79-11.84-3.79c-4.72,0-9.19,1.55-12.56,4.36c-3.5,2.92-5.43,6.83-5.43,11.03c0,4.2,1.93,8.11,5.43,11.03
							c3.38,2.82,7.84,4.36,12.56,4.36c4.4,0,8.56-1.34,11.84-3.79v3.66h5.36V1.03h-5.36V8.1z M27.81,34.98h5.75V4.43L19,17.39
							c-0.49,0.48-1.17,0.75-1.89,0.75c-0.72,0-1.39-0.26-1.88-0.74L0.44,4.43v30.54H6.2V16.97l5.08,4.49
							c1.56,1.5,3.63,2.33,5.84,2.33c2.22,0,4.31-0.84,5.87-2.36l4.83-4.31V34.98z M54.1,9.49c4.84,0,9.06,2.17,11.21,5.37
							c-2.17,2.46-6.43,4.17-11.21,4.17c-4.78,0-9.03-1.71-11.21-4.17C45.04,11.66,49.26,9.49,54.1,9.49z M54.1,24.21
							c4.63,0,9.02-1.24,12.35-3.5c0.12-0.08,0.23-0.16,0.35-0.24c2.11-1.51,3.64-3.33,4.49-5.34c-0.88-2.42-2.45-4.63-4.63-6.44
							c-0.38-0.31-0.77-0.61-1.17-0.89c-3.2-2.24-7.19-3.47-11.39-3.47c-4.2,0-8.18,1.22-11.39,3.47c-0.4,0.28-0.8,0.58-1.17,0.89
							c-2.18,1.82-3.75,4.02-4.63,6.44c-0.53,1.46-0.8,3-0.8,4.58c0,4.2,1.93,8.11,5.43,11.03c3.37,2.81,7.84,4.36,12.56,4.36
							c4.73,0,9.18-1.55,12.56-4.36c0.69-0.58,1.32-1.19,1.89-1.84c-0.75-0.37-1.45-0.78-2.12-1.23c-0.82-0.55-1.55-1.15-2.2-1.79
							c-2.33,2.45-6,4.03-10.13,4.03c-6.7,0-12.22-4.18-12.7-9.45c0.11,0.08,0.23,0.16,0.35,0.24
							C45.08,22.96,49.47,24.21,54.1,24.21z"/>
					</g>
				</g>
			</g>
		</g>
	</g>
</g>
</svg>
