<svg viewBox="0 0 201 55" version="1.1" xmlns="http://www.w3.org/2000/svg" xmlns:xlink="http://www.w3.org/1999/xlink">
  <g id="Symbols" stroke="none" stroke-width="1" fill="none" fill-rule="evenodd">
    <g id="Foxen-Footer" transform="translate(-98.000000, -91.000000)">
      <rect id="Rectangle" x="0" y="40" width="1280" height="229"></rect>
      <g id="LOGO_MEDIUM-BLUE" transform="translate(97.000000, 91.000000)" fill="#fff">
        <g id="Logo">
          <path d="M1.05208333,53.6643756 L1.05208333,51.6295195 C5.43079288,51.6295195 6.41300971,50.7447818 6.41300971,46.4092841 L6.41300971,7.30404135 C6.41300971,2.96894819 5.43079288,2.08380598 1.05208333,2.08380598 L1.05208333,0.0489498202 L42.7811812,0.0489498202 L42.959729,13.8503719 L41.3515736,13.8503719 C40.1899919,4.47304266 37.5988026,2.61456767 26.3396723,2.61456767 L21.2463633,2.61456767 L21.2463633,24.6448186 L25.2377427,24.6448186 C32.3861893,24.6448186 34.1814725,22.5007355 35.5142476,17.4783222 L37.9558981,17.4783222 L33.1731068,34.2883377 L30.8307403,34.2883377 C32.5202023,28.3395186 31.0088794,27.2100319 24.4929086,27.2100319 L21.2463633,27.2100319 L21.2463633,46.4092841 C21.2463633,50.6561867 22.2293972,51.6295195 28.3948099,51.6295195 L28.3948099,53.6643756 L1.05208333,53.6643756 Z" id="Fill-1"></path>
          <path d="M60.6150585,16.7291452 C56.4695607,16.7291452 53.8572502,22.6376875 53.8572502,34.6301655 C53.8572502,46.7105418 56.4695607,52.5303793 60.6150585,52.5303793 C64.7609683,52.5303793 67.3736908,46.7105418 67.3736908,34.6301655 C67.3736908,22.6376875 64.7609683,16.7291452 60.6150585,16.7291452 M60.6150585,55 C49.8918123,55 39.5282738,46.7988433 39.5282738,34.6301655 C39.5282738,22.5493859 49.8918123,14.3478261 60.6150585,14.3478261 C71.3383047,14.3478261 81.6116071,22.5493859 81.6116071,34.6301655 C81.6116071,46.7988433 71.3383047,55 60.6150585,55" id="Fill-4"></path>
          <path d="M131.213274,27.7515159 L143.756963,27.7515159 C143.577925,21.314374 141.338522,16.9940498 137.574637,16.9940498 C133.811572,16.9940498 131.571349,20.4329714 131.213274,27.7515159 M138.022436,55 C126.822553,55 117.683036,47.1516463 117.683036,35.5998696 C117.683036,23.6069884 127.449799,14.3478261 138.022436,14.3478261 C148.506578,14.3478261 154.419733,22.8134842 154.509047,30.2211366 L131.213274,30.2211366 C131.481626,41.3318088 137.485323,48.4745566 144.832826,48.4745566 C148.416854,48.4745566 151.194599,46.9754464 153.61304,43.6244232 L154.956845,44.6824288 C151.194599,51.4727769 144.832826,55 138.022436,55" id="Fill-6"></path>
          <path d="M177.047989,53.6664493 L155.299406,53.6664493 L155.299406,51.8363043 C158.835774,51.8363043 159.189896,50.9646739 159.189896,46.6934058 L159.189896,22.2000725 C159.189896,17.9292029 158.835774,17.0575725 155.299406,17.0575725 L155.299406,15.227029 L166.438885,15.227029 C170.150293,15.227029 173.158308,18.1930435 173.158308,21.8517391 C174.926088,18.1037681 179.524013,14.3553986 185.093753,14.3553986 C193.227642,14.3553986 197.647698,20.0211957 197.647698,26.9942391 L197.647698,46.6934058 C197.647698,50.9646739 198.00182,51.8363043 201.538188,51.8363043 L201.538188,53.6664493 L179.788796,53.6664493 L179.788796,51.8363043 C183.325569,51.8363043 183.678882,50.9646739 183.678882,46.6934058 L183.678882,28.6506159 C183.678882,22.8102536 181.291793,20.5444928 177.932486,20.5444928 C176.076175,20.5444928 174.219057,21.6775725 173.158308,24.0306159 L173.158308,46.6934058 C173.158308,50.9646739 173.600152,51.8363043 177.047989,51.8363043 L177.047989,53.6664493 Z" id="Fill-8"></path>
          <path d="M104.678853,30.8876059 L110.961307,21.7411544 C113.47396,18.1353108 115.538805,17.0801677 119.577291,17.0801677 L119.577291,15.2331642 L105.217455,15.2331642 L105.217455,17.0801677 C107.82008,17.0801677 108.986845,17.4316137 108.986845,18.5749201 C108.986845,19.2790198 108.538215,20.3341628 107.550574,21.7411544 L103.15302,28.5132322 C93.4672281,14.3539455 87.3782764,12.9405127 75.8453803,15.2331642 L75.8453803,17.0801677 C82.5193578,16.134927 81.4737886,18.6964971 92.6525468,35.7245168 L83.9465907,47.5094298 C81.2535822,51.1148709 79.4586541,52.1700139 75.5997024,52.1700139 L75.5997024,54.01742 L90.5877016,54.01742 L90.5877016,52.1700139 C87.6260085,52.1700139 86.1901482,51.7304045 86.1901482,50.4993372 C86.1901482,49.7956402 86.6391883,48.828258 87.5360361,47.5094298 L94.1775578,38.0988906 C105.369463,55.310886 113.026974,56.6671534 122.49256,53.8551832 L122.49256,52.0081797 C115.998116,53.9904476 114.855179,46.8371334 104.678853,30.8876059" id="Fill-11"></path>
        </g>
      </g>
    </g>
  </g>
</svg>
