<?xml version="1.0" encoding="utf-8"?>
<!-- Generator: Adobe Illustrator 24.0.0, SVG Export Plug-In . SVG Version: 6.00 Build 0)  -->
<svg version="1.1" xmlns="http://www.w3.org/2000/svg" xmlns:xlink="http://www.w3.org/1999/xlink" x="0px" y="0px"
	 viewBox="0 0 358 157.33" style="enable-background:new 0 0 358 157.33;" xml:space="preserve">
<style type="text/css">
	.st0{fill:#F1F2F2;}
	.st1{display:none;}
	.st2{display:inline;}
	.st3{fill:#FFFFFF;}
</style>
<g id="_x34_C">
	<g>
		<g>
			<g>
				<path class="st0" d="M7.75,28.91h11.38v21.46l20.23-21.46h14.21L33.34,49.36l22.19,31.32H41.25L25.66,57.4L19.13,64v16.68H7.75
					V28.91z"/>
				<path class="st0" d="M59.01,43.19h9.79v6.96h0.15c1.88-4.71,6.96-7.98,11.96-7.98c0.72,0,1.6,0.15,2.25,0.36v9.57
					c-0.94-0.22-2.47-0.36-3.7-0.36c-7.54,0-10.15,5.44-10.15,12.04v16.89h-10.3V43.19z"/>
			</g>
		</g>
		<g>
			<path class="st0" d="M104.12,42.18c11.82,0,19.43,7.83,19.43,19.79c0,11.89-7.61,19.72-19.43,19.72
				c-11.75,0-19.36-7.83-19.36-19.72C84.76,50.01,92.37,42.18,104.12,42.18z M104.12,73.94c7.03,0,9.14-6.02,9.14-11.96
				c0-6.02-2.1-12.04-9.14-12.04c-6.96,0-9.06,6.02-9.06,12.04C95.05,67.92,97.16,73.94,104.12,73.94z"/>
			<path class="st0" d="M166.26,78.29c0,6.16-2.18,16.6-19.43,16.6c-7.4,0-16.03-3.48-16.53-12.04h10.22
				c0.94,3.84,4.06,5.15,7.69,5.15c5.73,0,8.34-3.92,8.27-9.28v-4.93h-0.15c-2.25,3.92-6.74,5.8-11.24,5.8
				c-11.24,0-16.03-8.56-16.03-18.85c0-9.72,5.58-18.56,16.1-18.56c4.93,0,8.7,1.67,11.17,6.02h0.15v-5h9.79V78.29z M156.47,61.46
				c0-6.09-2.1-11.53-8.77-11.53c-5.8,0-8.34,5.08-8.34,10.66c0,5.37,2.03,11.24,8.34,11.24C153.57,71.83,156.47,66.83,156.47,61.46
				z"/>
			<path class="st0" d="M183.01,64.44c0.29,6.53,3.48,9.5,9.21,9.5c4.13,0,7.47-2.54,8.12-4.86h9.06
				c-2.9,8.85-9.06,12.62-17.55,12.62c-11.82,0-19.14-8.12-19.14-19.72c0-11.24,7.76-19.79,19.14-19.79
				c12.76,0,18.92,10.73,18.2,22.26H183.01z M199.76,57.91c-0.94-5.22-3.19-7.98-8.19-7.98c-6.53,0-8.41,5.08-8.56,7.98H199.76z"/>
			<path class="st0" d="M216.15,43.19h9.79v6.96h0.15c1.88-4.71,6.96-7.98,11.96-7.98c0.72,0,1.6,0.15,2.25,0.36v9.57
				c-0.94-0.22-2.47-0.36-3.7-0.36c-7.54,0-10.15,5.44-10.15,12.04v16.89h-10.3V43.19z"/>
		</g>
		<g>
			<g>
				<path class="st0" d="M54.21,150.41h-8.08l-9.43-36.92h-0.18l-9.34,36.92h-8.26L4,103.97h8.44l10.51,38h0.18l9.34-38h8.35l9.7,38
					h0.18l10.42-38h7.9L54.21,150.41z"/>
				<path class="st0" d="M84.4,95.62h-7.64v-9.34h7.64V95.62z M76.76,103.97h7.64v46.44h-7.64V103.97z"/>
			</g>
			<g>
				<path class="st0" d="M95.98,103.97h7.19v9.79h0.18c3.68-7.46,8.8-11.14,17.07-10.87v8.08c-12.31,0-16.8,7.01-16.8,18.77v20.66
					h-7.64V103.97z"/>
				<path class="st0" d="M165.78,135.68c-2.07,10.24-9.43,15.81-19.85,15.81c-14.82,0-21.83-10.24-22.28-24.43
					c0-13.92,9.16-24.16,21.83-24.16c16.44,0,21.47,15.36,21.02,26.59h-34.76c-0.27,8.08,4.31,15.27,14.46,15.27
					c6.29,0,10.69-3.05,12.04-9.07H165.78z M158.41,122.75c-0.36-7.28-5.84-13.12-13.38-13.12c-8,0-12.76,6.02-13.29,13.12H158.41z"
					/>
			</g>
			<g>
				<path class="st0" d="M173.24,86.28h7.64v64.14h-7.64V86.28z"/>
				<path class="st0" d="M232.34,135.68c-2.07,10.24-9.43,15.81-19.85,15.81c-14.82,0-21.83-10.24-22.28-24.43
					c0-13.92,9.16-24.16,21.83-24.16c16.44,0,21.47,15.36,21.02,26.59H198.3c-0.27,8.08,4.31,15.27,14.46,15.27
					c6.29,0,10.69-3.05,12.04-9.07H232.34z M224.97,122.75c-0.36-7.28-5.84-13.12-13.38-13.12c-8,0-12.76,6.02-13.29,13.12H224.97z"
					/>
				<path class="st0" d="M245.63,135.77c0.27,6.83,6.2,8.98,12.49,8.98c4.76,0,11.23-1.08,11.23-6.92c0-5.93-7.55-6.92-15.18-8.62
					c-7.55-1.71-15.18-4.22-15.18-13.12c0-9.34,9.25-13.21,17.34-13.21c10.24,0,18.42,3.23,19.04,14.55h-7.64
					c-0.54-5.93-5.75-7.82-10.78-7.82c-4.58,0-9.88,1.26-9.88,5.93c0,5.48,8.08,6.38,15.18,8.08c7.64,1.71,15.18,4.22,15.18,13.2
					c0,11.05-10.33,14.64-19.76,14.64c-10.42,0-19.22-4.22-19.67-15.72H245.63z"/>
				<path class="st0" d="M290.55,135.77c0.27,6.83,6.2,8.98,12.49,8.98c4.76,0,11.23-1.08,11.23-6.92c0-5.93-7.55-6.92-15.18-8.62
					c-7.55-1.71-15.18-4.22-15.18-13.12c0-9.34,9.25-13.21,17.34-13.21c10.24,0,18.42,3.23,19.04,14.55h-7.64
					c-0.54-5.93-5.75-7.82-10.78-7.82c-4.58,0-9.88,1.26-9.88,5.93c0,5.48,8.08,6.38,15.18,8.08c7.64,1.71,15.18,4.22,15.18,13.2
					c0,11.05-10.33,14.64-19.76,14.64c-10.42,0-19.22-4.22-19.67-15.72H290.55z"/>
			</g>
			<g>
				<path class="st0" d="M313.39,70.09c-0.02-7.34-5.85-13.12-13.19-13.1c-7.27,0.02-13,5.84-13.01,13.15
					c-0.01,7.24,5.78,12.91,12.58,13.04C308.51,83.35,313.43,76.47,313.39,70.09 M300.27,39.56c-2.77,0.31-5.57,0.45-8.3,0.97
					c-6.76,1.31-12.92,4.08-18.55,8.05c-1.83,1.28-3.27,2.8-3.48,5.18c-0.2,2.28,1.29,4.01,3.57,4.12c1.61,0.08,2.99-0.46,4.32-1.3
					c2.21-1.4,4.39-2.86,6.72-4.04c6.43-3.25,13.27-4.43,20.42-3.45c6.45,0.88,12.21,3.51,17.5,7.26c0.86,0.61,1.87,1.11,2.89,1.39
					c2.85,0.78,5.38-0.9,5.29-3.52c-0.06-1.96-0.84-3.71-2.47-4.88c-3.18-2.27-6.49-4.32-10.11-5.85
					C312.38,41.07,306.49,39.69,300.27,39.56 M300.28,22.55c-4.5-0.08-8.92,0.47-13.3,1.42c-10.7,2.34-20.16,7.2-28.56,14.18
					c-1.41,1.17-2.19,2.69-2.34,4.53c-0.16,1.97,1.14,3.6,3.1,3.95c2.12,0.37,3.77-0.62,5.38-1.78c2.28-1.66,4.51-3.42,6.89-4.91
					c7.76-4.86,16.24-7.68,25.38-8.27c7.75-0.5,15.3,0.63,22.57,3.45c4.86,1.89,9.46,4.25,13.63,7.42c1.75,1.32,3.47,2.76,5.41,3.73
					c2.46,1.23,5.47,0.53,6-2.78c0.35-2.18-0.69-3.94-2.3-5.33c-1.16-1-2.39-1.93-3.63-2.83C327.1,27.04,314.41,22.61,300.28,22.55
					 M300.58,5.17c-7.17,0.13-12.74,0.75-19.06,2.38c-12.55,3.24-23.66,9.22-33.38,17.79c-1.11,0.98-1.83,2.18-2.17,3.62
					c-0.62,2.67,1.17,4.96,3.91,4.94c1.53-0.01,2.85-0.59,4.01-1.56c1.26-1.05,2.5-2.13,3.8-3.14
					c11.15-8.64,23.72-13.71,37.81-14.76c9.03-0.67,17.88,0.49,26.48,3.43c9.07,3.1,17.14,7.89,24.38,14.15
					c0.7,0.61,1.52,1.15,2.37,1.49c3.41,1.34,6.34-0.77,5.9-4.22c-0.2-1.58-0.97-2.93-2.2-3.93c-2.38-1.94-4.73-3.93-7.25-5.7
					c-9.1-6.38-19.06-10.71-30-12.96C310.25,5.69,305.3,5.49,300.58,5.17"/>
			</g>
			<g>
				<path class="st0" d="M300.58,5.17c4.72,0.32,9.67,0.52,14.6,1.53c10.93,2.25,20.9,6.58,30,12.96c2.51,1.76,4.87,3.75,7.25,5.7
					c1.23,1,2,2.35,2.2,3.93c0.44,3.45-2.49,5.56-5.9,4.22c-0.86-0.34-1.67-0.88-2.37-1.49c-7.24-6.26-15.31-11.05-24.38-14.15
					c-8.6-2.94-17.44-4.11-26.48-3.43c-14.09,1.05-26.66,6.12-37.81,14.76c-1.3,1.01-2.54,2.09-3.8,3.14
					c-1.16,0.97-2.48,1.56-4.01,1.56c-2.73,0.01-4.53-2.27-3.91-4.94c0.34-1.43,1.06-2.64,2.17-3.62
					c9.72-8.56,20.82-14.55,33.38-17.79C287.84,5.92,293.41,5.31,300.58,5.17"/>
			</g>
			<g>
				<path class="st0" d="M300.28,22.55c14.14,0.06,26.82,4.5,38.22,12.76c1.24,0.9,2.47,1.84,3.63,2.84
					c1.61,1.39,2.65,3.14,2.3,5.33c-0.53,3.31-3.53,4.01-6,2.78c-1.94-0.97-3.66-2.41-5.41-3.73c-4.18-3.16-8.77-5.53-13.63-7.42
					c-7.27-2.82-14.82-3.95-22.57-3.45c-9.14,0.59-17.62,3.41-25.38,8.27c-2.39,1.5-4.61,3.26-6.9,4.91
					c-1.61,1.17-3.26,2.15-5.37,1.78c-1.96-0.34-3.26-1.97-3.1-3.95c0.15-1.83,0.93-3.35,2.34-4.53
					c8.4-6.97,17.86-11.84,28.56-14.18C291.35,23.01,295.78,22.47,300.28,22.55"/>
			</g>
			<g>
				<path class="st0" d="M300.27,39.56c6.22,0.14,12.11,1.52,17.79,3.92c3.62,1.53,6.93,3.59,10.11,5.86
					c1.63,1.17,2.41,2.92,2.47,4.88c0.09,2.62-2.44,4.31-5.29,3.52c-1.02-0.28-2.02-0.78-2.89-1.4c-5.29-3.75-11.05-6.37-17.5-7.25
					c-7.14-0.97-13.99,0.2-20.42,3.45c-2.33,1.18-4.51,2.64-6.71,4.04c-1.34,0.84-2.71,1.38-4.32,1.3
					c-2.28-0.11-3.77-1.85-3.57-4.12c0.21-2.39,1.66-3.9,3.48-5.18c5.63-3.97,11.79-6.74,18.55-8.04
					C294.7,40,297.5,39.87,300.27,39.56"/>
			</g>
			<g>
				<path class="st0" d="M313.39,70.09c0.04,6.39-4.88,13.26-13.62,13.1c-6.8-0.13-12.59-5.81-12.58-13.05
					c0.01-7.31,5.74-13.13,13.01-13.15C307.54,56.96,313.37,62.75,313.39,70.09"/>
			</g>
		</g>
	</g>
	<g>
		<g>
			<g>
				<path class="st0" d="M336.55,116.05l1.77,0.01l0.66-7.97c0.06-0.77,0.05-1.9,0.05-1.9h0.04c0,0,0.39,1.22,0.67,1.9l2.47,5.72
					l1.57,0.01l2.56-5.68c0.31-0.7,0.69-1.86,0.69-1.86h0.04c0,0-0.04,1.09,0.01,1.87l0.57,7.98l1.75,0.01l-0.94-12.66l-1.86-0.01
					l-2.95,6.83c-0.29,0.7-0.64,1.7-0.64,1.7h-0.04c0,0-0.34-1-0.62-1.71l-2.85-6.87l-1.86-0.01L336.55,116.05z M329.03,116
					l1.77,0.01l0.07-11.12l4.33,0.03l0.01-1.54l-10.44-0.07l-0.01,1.54l4.33,0.03L329.03,116z"/>
			</g>
		</g>
	</g>
</g>
<g id="KO" class="st1">
	<g class="st2">
		<g>
			<g>
				<path class="st3" d="M7.75,28.91h11.38v21.46l20.23-21.46h14.21L33.34,49.36l22.19,31.32H41.25L25.66,57.4L19.13,64v16.68H7.75
					V28.91z"/>
				<path class="st3" d="M59.01,43.19h9.79v6.96h0.15c1.88-4.71,6.96-7.98,11.96-7.98c0.72,0,1.6,0.15,2.25,0.36v9.57
					c-0.94-0.22-2.47-0.36-3.7-0.36c-7.54,0-10.15,5.44-10.15,12.04v16.89h-10.3V43.19z"/>
			</g>
		</g>
		<g>
			<path class="st3" d="M104.12,42.18c11.82,0,19.43,7.83,19.43,19.79c0,11.89-7.61,19.72-19.43,19.72
				c-11.75,0-19.36-7.83-19.36-19.72C84.76,50.01,92.37,42.18,104.12,42.18z M104.12,73.94c7.03,0,9.14-6.02,9.14-11.96
				c0-6.02-2.1-12.04-9.14-12.04c-6.96,0-9.06,6.02-9.06,12.04C95.05,67.92,97.16,73.94,104.12,73.94z"/>
			<path class="st3" d="M166.26,78.29c0,6.16-2.18,16.6-19.43,16.6c-7.4,0-16.03-3.48-16.53-12.04h10.22
				c0.94,3.84,4.06,5.15,7.69,5.15c5.73,0,8.34-3.92,8.27-9.28v-4.93h-0.15c-2.25,3.92-6.74,5.8-11.24,5.8
				c-11.24,0-16.03-8.56-16.03-18.85c0-9.72,5.58-18.56,16.1-18.56c4.93,0,8.7,1.67,11.17,6.02h0.15v-5h9.79V78.29z M156.47,61.46
				c0-6.09-2.1-11.53-8.77-11.53c-5.8,0-8.34,5.08-8.34,10.66c0,5.37,2.03,11.24,8.34,11.24C153.57,71.83,156.47,66.83,156.47,61.46
				z"/>
			<path class="st3" d="M183.01,64.44c0.29,6.53,3.48,9.5,9.21,9.5c4.13,0,7.47-2.54,8.12-4.86h9.06
				c-2.9,8.85-9.06,12.62-17.55,12.62c-11.82,0-19.14-8.12-19.14-19.72c0-11.24,7.76-19.79,19.14-19.79
				c12.76,0,18.92,10.73,18.2,22.26H183.01z M199.76,57.91c-0.94-5.22-3.19-7.98-8.19-7.98c-6.53,0-8.41,5.08-8.56,7.98H199.76z"/>
			<path class="st3" d="M216.15,43.19h9.79v6.96h0.15c1.88-4.71,6.96-7.98,11.96-7.98c0.72,0,1.6,0.15,2.25,0.36v9.57
				c-0.94-0.22-2.47-0.36-3.7-0.36c-7.54,0-10.15,5.44-10.15,12.04v16.89h-10.3V43.19z"/>
		</g>
		<g>
			<g>
				<path class="st3" d="M54.21,150.41h-8.08l-9.43-36.92h-0.18l-9.34,36.92h-8.26L4,103.97h8.44l10.51,38h0.18l9.34-38h8.35l9.7,38
					h0.18l10.42-38h7.9L54.21,150.41z"/>
				<path class="st3" d="M84.4,95.62h-7.64v-9.34h7.64V95.62z M76.76,103.97h7.64v46.44h-7.64V103.97z"/>
			</g>
			<g>
				<path class="st3" d="M95.98,103.97h7.19v9.79h0.18c3.68-7.46,8.8-11.14,17.07-10.87v8.08c-12.31,0-16.8,7.01-16.8,18.77v20.66
					h-7.64V103.97z"/>
				<path class="st3" d="M165.78,135.68c-2.07,10.24-9.43,15.81-19.85,15.81c-14.82,0-21.83-10.24-22.28-24.43
					c0-13.92,9.16-24.16,21.83-24.16c16.44,0,21.47,15.36,21.02,26.59h-34.76c-0.27,8.08,4.31,15.27,14.46,15.27
					c6.29,0,10.69-3.05,12.04-9.07H165.78z M158.41,122.75c-0.36-7.28-5.84-13.12-13.38-13.12c-8,0-12.76,6.02-13.29,13.12H158.41z"
					/>
			</g>
			<g>
				<path class="st3" d="M173.24,86.28h7.64v64.14h-7.64V86.28z"/>
				<path class="st3" d="M232.34,135.68c-2.07,10.24-9.43,15.81-19.85,15.81c-14.82,0-21.83-10.24-22.28-24.43
					c0-13.92,9.16-24.16,21.83-24.16c16.44,0,21.47,15.36,21.02,26.59H198.3c-0.27,8.08,4.31,15.27,14.46,15.27
					c6.29,0,10.69-3.05,12.04-9.07H232.34z M224.97,122.75c-0.36-7.28-5.84-13.12-13.38-13.12c-8,0-12.76,6.02-13.29,13.12H224.97z"
					/>
				<path class="st3" d="M245.63,135.77c0.27,6.83,6.2,8.98,12.49,8.98c4.76,0,11.23-1.08,11.23-6.92c0-5.93-7.55-6.92-15.18-8.62
					c-7.55-1.71-15.18-4.22-15.18-13.12c0-9.34,9.25-13.21,17.34-13.21c10.24,0,18.42,3.23,19.04,14.55h-7.64
					c-0.54-5.93-5.75-7.82-10.78-7.82c-4.58,0-9.88,1.26-9.88,5.93c0,5.48,8.08,6.38,15.18,8.08c7.64,1.71,15.18,4.22,15.18,13.2
					c0,11.05-10.33,14.64-19.76,14.64c-10.42,0-19.22-4.22-19.67-15.72H245.63z"/>
				<path class="st3" d="M290.55,135.77c0.27,6.83,6.2,8.98,12.49,8.98c4.76,0,11.23-1.08,11.23-6.92c0-5.93-7.55-6.92-15.18-8.62
					c-7.55-1.71-15.18-4.22-15.18-13.12c0-9.34,9.25-13.21,17.34-13.21c10.24,0,18.42,3.23,19.04,14.55h-7.64
					c-0.54-5.93-5.75-7.82-10.78-7.82c-4.58,0-9.88,1.26-9.88,5.93c0,5.48,8.08,6.38,15.18,8.08c7.64,1.71,15.18,4.22,15.18,13.2
					c0,11.05-10.33,14.64-19.76,14.64c-10.42,0-19.22-4.22-19.67-15.72H290.55z"/>
			</g>
			<g>
				<path class="st3" d="M313.39,70.09c-0.02-7.34-5.85-13.12-13.19-13.1c-7.27,0.02-13,5.84-13.01,13.15
					c-0.01,7.24,5.78,12.91,12.58,13.04C308.51,83.35,313.43,76.47,313.39,70.09 M300.27,39.56c-2.77,0.31-5.57,0.45-8.3,0.97
					c-6.76,1.31-12.92,4.08-18.55,8.05c-1.83,1.28-3.27,2.8-3.48,5.18c-0.2,2.28,1.29,4.01,3.57,4.12c1.61,0.08,2.99-0.46,4.32-1.3
					c2.21-1.4,4.39-2.86,6.72-4.04c6.43-3.25,13.27-4.43,20.42-3.45c6.45,0.88,12.21,3.51,17.5,7.26c0.86,0.61,1.87,1.11,2.89,1.39
					c2.85,0.78,5.38-0.9,5.29-3.52c-0.06-1.96-0.84-3.71-2.47-4.88c-3.18-2.27-6.49-4.32-10.11-5.85
					C312.38,41.07,306.49,39.69,300.27,39.56 M300.28,22.55c-4.5-0.08-8.92,0.47-13.3,1.42c-10.7,2.34-20.16,7.2-28.56,14.18
					c-1.41,1.17-2.19,2.69-2.34,4.53c-0.16,1.97,1.14,3.6,3.1,3.95c2.12,0.37,3.77-0.62,5.38-1.78c2.28-1.66,4.51-3.42,6.89-4.91
					c7.76-4.86,16.24-7.68,25.38-8.27c7.75-0.5,15.3,0.63,22.57,3.45c4.86,1.89,9.46,4.25,13.63,7.42c1.75,1.32,3.47,2.76,5.41,3.73
					c2.46,1.23,5.47,0.53,6-2.78c0.35-2.18-0.69-3.94-2.3-5.33c-1.16-1-2.39-1.93-3.63-2.83C327.1,27.04,314.41,22.61,300.28,22.55
					 M300.58,5.17c-7.17,0.13-12.74,0.75-19.06,2.38c-12.55,3.24-23.66,9.22-33.38,17.79c-1.11,0.98-1.83,2.18-2.17,3.62
					c-0.62,2.67,1.17,4.96,3.91,4.94c1.53-0.01,2.85-0.59,4.01-1.56c1.26-1.05,2.5-2.13,3.8-3.14
					c11.15-8.64,23.72-13.71,37.81-14.76c9.03-0.67,17.88,0.49,26.48,3.43c9.07,3.1,17.14,7.89,24.38,14.15
					c0.7,0.61,1.52,1.15,2.37,1.49c3.41,1.34,6.34-0.77,5.9-4.22c-0.2-1.58-0.97-2.93-2.2-3.93c-2.38-1.94-4.73-3.93-7.25-5.7
					c-9.1-6.38-19.06-10.71-30-12.96C310.25,5.69,305.3,5.49,300.58,5.17"/>
			</g>
			<g>
				<path class="st3" d="M300.58,5.17c4.72,0.32,9.67,0.52,14.6,1.53c10.93,2.25,20.9,6.58,30,12.96c2.51,1.76,4.87,3.75,7.25,5.7
					c1.23,1,2,2.35,2.2,3.93c0.44,3.45-2.49,5.56-5.9,4.22c-0.86-0.34-1.67-0.88-2.37-1.49c-7.24-6.26-15.31-11.05-24.38-14.15
					c-8.6-2.94-17.44-4.11-26.48-3.43c-14.09,1.05-26.66,6.12-37.81,14.76c-1.3,1.01-2.54,2.09-3.8,3.14
					c-1.16,0.97-2.48,1.56-4.01,1.56c-2.73,0.01-4.53-2.27-3.91-4.94c0.34-1.43,1.06-2.64,2.17-3.62
					c9.72-8.56,20.82-14.55,33.38-17.79C287.84,5.92,293.41,5.31,300.58,5.17"/>
			</g>
			<g>
				<path class="st3" d="M300.28,22.55c14.14,0.06,26.82,4.5,38.22,12.76c1.24,0.9,2.47,1.84,3.63,2.84
					c1.61,1.39,2.65,3.14,2.3,5.33c-0.53,3.31-3.53,4.01-6,2.78c-1.94-0.97-3.66-2.41-5.41-3.73c-4.18-3.16-8.77-5.53-13.63-7.42
					c-7.27-2.82-14.82-3.95-22.57-3.45c-9.14,0.59-17.62,3.41-25.38,8.27c-2.39,1.5-4.61,3.26-6.9,4.91
					c-1.61,1.17-3.26,2.15-5.37,1.78c-1.96-0.34-3.26-1.97-3.1-3.95c0.15-1.83,0.93-3.35,2.34-4.53
					c8.4-6.97,17.86-11.84,28.56-14.18C291.35,23.01,295.78,22.47,300.28,22.55"/>
			</g>
			<g>
				<path class="st3" d="M300.27,39.56c6.22,0.14,12.11,1.52,17.79,3.92c3.62,1.53,6.93,3.59,10.11,5.86
					c1.63,1.17,2.41,2.92,2.47,4.88c0.09,2.62-2.44,4.31-5.29,3.52c-1.02-0.28-2.02-0.78-2.89-1.4c-5.29-3.75-11.05-6.37-17.5-7.25
					c-7.14-0.97-13.99,0.2-20.42,3.45c-2.33,1.18-4.51,2.64-6.71,4.04c-1.34,0.84-2.71,1.38-4.32,1.3
					c-2.28-0.11-3.77-1.85-3.57-4.12c0.21-2.39,1.66-3.9,3.48-5.18c5.63-3.97,11.79-6.74,18.55-8.04
					C294.7,40,297.5,39.87,300.27,39.56"/>
			</g>
			<g>
				<path class="st3" d="M313.39,70.09c0.04,6.39-4.88,13.26-13.62,13.1c-6.8-0.13-12.59-5.81-12.58-13.05
					c0.01-7.31,5.74-13.13,13.01-13.15C307.54,56.96,313.37,62.75,313.39,70.09"/>
			</g>
		</g>
	</g>
	<g class="st2">
		<g>
			<g>
				<path class="st3" d="M336.55,116.05l1.77,0.01l0.66-7.97c0.06-0.77,0.05-1.9,0.05-1.9h0.04c0,0,0.39,1.22,0.67,1.9l2.47,5.72
					l1.57,0.01l2.56-5.68c0.31-0.7,0.69-1.86,0.69-1.86h0.04c0,0-0.04,1.09,0.01,1.87l0.57,7.98l1.75,0.01l-0.94-12.66l-1.86-0.01
					l-2.95,6.83c-0.29,0.7-0.64,1.7-0.64,1.7h-0.04c0,0-0.34-1-0.62-1.71l-2.85-6.87l-1.86-0.01L336.55,116.05z M329.03,116
					l1.77,0.01l0.07-11.12l4.33,0.03l0.01-1.54l-10.44-0.07l-0.01,1.54l4.33,0.03L329.03,116z"/>
			</g>
		</g>
	</g>
</g>
</svg>
