<?xml version="1.0" encoding="UTF-8"?>
<svg width="125px" height="35px" viewBox="0 0 125 35" version="1.1" xmlns="http://www.w3.org/2000/svg" xmlns:xlink="http://www.w3.org/1999/xlink">
    <!-- Generator: Sketch 52.2 (67145) - http://www.bohemiancoding.com/sketch -->
    <defs>
        <path d="M0.0257116621,6.82173206 C-0.188797062,10.7528367 2.78769513,14.1125058 6.67162534,14.3291867 C10.5540863,14.5438235 13.8751148,11.5337056 14.0901745,7.6042735 C14.3037649,3.6733547 11.328742,0.312942243 7.44407713,0.0975621601 C7.31221304,0.0903146853 7.18163453,0.0865980316 7.05105601,0.0867838643 C3.33755739,0.086969697 0.232506887,3.02591362 0.0257116621,6.82173206 Z" id="path-1"></path>
        <path d="M0.0257116621,6.82173206 C-0.188797062,10.7528367 2.78769513,14.1125058 6.67162534,14.3291867 C10.5540863,14.5438235 13.8751148,11.5337056 14.0901745,7.6042735 C14.3037649,3.6733547 11.328742,0.312942243 7.44407713,0.0975621601 C7.31221304,0.0903146853 7.18163453,0.0867838643 7.05105601,0.0867838643 C3.33755739,0.086969697 0.232506887,3.02591362 0.0257116621,6.82173206 Z" id="path-3"></path>
        <path d="M0.132037037,5.40110785 C-0.0390740741,8.48722059 2.3612963,11.1284718 5.49296296,11.297074 C8.6262963,11.4680482 11.3057407,9.10250896 11.4777778,6.01566634 C11.6496296,2.92699902 9.25092593,0.28684262 6.11666667,0.117875529 C6.01055556,0.112218964 5.90537037,0.109299446 5.80037037,0.109299446 C2.80592593,0.109664386 0.297407407,2.41717823 0.132037037,5.40110785 Z" id="path-5"></path>
        <path d="M0.132037037,5.40110785 C-0.0390740741,8.48722059 2.3612963,11.1284718 5.49296296,11.297074 C8.6262963,11.4680482 11.3057407,9.10250896 11.4777778,6.01566634 C11.6496296,2.92699902 9.25092593,0.28684262 6.11666667,0.117875529 C6.01055556,0.112218964 5.90537037,0.109481916 5.80037037,0.109481916 C2.80592593,0.109481916 0.297407407,2.41717823 0.132037037,5.40110785 Z" id="path-7"></path>
        <path d="M0.125926573,4.56988636 C-0.0159702797,7.15725524 1.96838287,9.3690472 4.55648601,9.51406469 C7.14256993,9.65486014 9.35527972,7.67307692 9.49772727,5.08405594 C9.64127622,2.49833916 7.65839161,0.284344406 5.0701049,0.141896853 C4.98199301,0.136940559 4.89479895,0.134554196 4.80778846,0.134554196 C2.33423077,0.134737762 0.264335664,2.07062937 0.125926573,4.56988636 Z" id="path-9"></path>
        <path d="M0.125926573,4.56988636 C-0.0159702797,7.15725524 1.96838287,9.3690472 4.55648601,9.51406469 C7.14256993,9.65486014 9.35527972,7.67307692 9.49772727,5.08405594 C9.64127622,2.49833916 7.65839161,0.284344406 5.0701049,0.141896853 C4.98199301,0.136940559 4.89479895,0.134554196 4.80778846,0.134554196 C2.3340472,0.134921329 0.264335664,2.07062937 0.125926573,4.56988636 Z" id="path-11"></path>
    </defs>
    <g id="Oodle-Logo-/-Header---Desktop---White" stroke="none" stroke-width="1" fill="none" fill-rule="evenodd">
        <g id="Group-36">
            <g id="Group-13" fill="#FFFFFF">
                <path d="M17.0117657,26.6344319 C17.9859668,25.4623901 18.4730673,23.9192749 18.4730673,22.0045366 C18.4730673,20.7368403 18.2503349,19.6063953 17.8056069,18.6133848 C17.3603263,17.6209241 16.741318,16.8430445 15.9474768,16.2806623 C15.1538197,15.7188298 14.251652,15.4373639 13.2413421,15.4373639 C12.2547977,15.4373639 11.3653418,15.7188298 10.5715005,16.2806623 C9.77765926,16.8430445 9.16436209,17.6209241 8.73142476,18.6133848 C8.29848743,19.6063953 8.08201877,20.7368403 8.08201877,22.0045366 C8.08201877,23.9192749 8.56285554,25.4623901 9.52526601,26.6344319 C10.4869396,27.8068403 11.7380363,28.3928613 13.2774509,28.3928613 C14.7929158,28.3928613 16.0375646,27.8068403 17.0117657,26.6344319 M6.36832386,33.2734372 C4.35949466,32.173411 2.79613034,30.6480707 1.67786243,28.6977827 C0.559226067,26.7482277 9.21143251e-05,24.529301 9.21143251e-05,22.0406361 C9.21143251e-05,19.5285157 0.559226067,17.2918141 1.67786243,15.3297984 C2.79613034,13.3681492 4.35949466,11.8429921 6.36832386,10.7539607 C8.37623192,9.66547906 10.6796427,9.12105497 13.2774509,9.12105497 C15.8752591,9.12105497 18.1783015,9.66547906 20.1869465,10.7539607 C22.1948545,11.8429921 23.7589558,13.3619188 24.8774079,15.3116571 C25.99586,17.2621283 26.554994,19.5050602 26.554994,22.0406361 C26.554994,24.529301 25.99586,26.7482277 24.8774079,28.6977827 C23.7589558,30.6480707 22.1893277,32.173411 20.168892,33.2734372 C18.1482722,34.3736466 15.8511252,34.924301 13.2774509,34.924301 C10.6796427,34.924301 8.37623192,34.3736466 6.36832386,33.2734372" id="Fill-1"></path>
                <path d="M37.8658593,28.1596257 C38.502922,27.430123 38.822006,26.4908037 38.822006,25.3422173 C38.822006,24.1938141 38.502922,23.2552277 37.8658593,22.5249921 C37.228244,21.7956728 36.4163483,21.4304634 35.4303566,21.4304634 C34.4438122,21.4304634 33.6321007,21.7956728 32.9950381,22.5249921 C32.3574227,23.2552277 32.0388914,24.1938141 32.0388914,25.3422173 C32.0388914,26.4908037 32.3574227,27.430123 32.9950381,28.1596257 C33.6321007,28.8894948 34.4438122,29.2541545 35.4303566,29.2541545 C36.4163483,29.2541545 37.228244,28.8894948 37.8658593,28.1596257 M29.9642925,33.453055 C28.3885849,32.6634476 27.1618063,31.5687356 26.284141,30.1691021 C25.4057388,28.7696518 24.9670904,27.1607513 24.9670904,25.3422173 C24.9670904,23.5244162 25.4120026,21.9151492 26.3020112,20.5155157 C27.1916513,19.115699 28.4246937,18.0334476 30.0004013,17.2676623 C31.5753721,16.5022435 33.3738122,16.1190759 35.394432,16.1190759 C37.4384489,16.1190759 39.2486796,16.5082906 40.8243872,17.2854372 C42.3995422,18.0631335 43.6206097,19.1461178 44.4866686,20.5332906 C45.3525432,21.9211963 45.7854805,23.5244162 45.7854805,25.3422173 C45.7854805,27.1849398 45.3462794,28.8055681 44.4684299,30.2050183 C43.5902119,31.6048351 42.3634334,32.6936832 40.7882784,33.4708298 C39.2125708,34.2487094 37.40234,34.6373743 35.3583232,34.6373743 C33.3377033,34.6373743 31.5394475,34.2424791 29.9642925,33.453055" id="Fill-3"></path>
                <path d="M58.4314509,27.8903089 C59.1169657,27.1727173 59.4598153,26.335466 59.4598153,25.3781885 L59.4598153,25.2347068 C59.4598153,24.3016178 59.0989113,23.4942356 58.3772877,22.812377 C57.6556641,22.1303351 56.8258982,21.7894974 55.887806,21.7894974 C54.877496,21.7894974 54.0296758,22.1427958 53.344161,22.8479267 C52.6586462,23.5541571 52.3157967,24.3974555 52.3157967,25.3781885 C52.3157967,26.3829267 52.6704368,27.2326387 53.3802698,27.9262251 C54.0893659,28.6203613 54.9255797,28.9670628 55.887806,28.9670628 C56.8981159,28.9670628 57.7459361,28.6080838 58.4314509,27.8903089 M49.0505281,33.3453613 C47.7156073,32.4839215 46.663109,31.3417487 45.8935859,29.9179267 C45.1235102,28.4948377 44.739025,26.9812251 44.739025,25.3781885 C44.739025,23.6794974 45.1415646,22.1186073 45.9475649,20.6947853 C46.7531968,19.2716963 47.8357243,18.1529791 49.1949633,17.3393665 C50.5534654,16.5263037 52.0029764,16.1191309 53.5425752,16.1191309 C54.9373704,16.1191309 56.122329,16.4062775 57.0963459,16.9805707 C58.0707312,17.5546806 58.8583087,18.4758586 59.4598153,19.7439215 L59.4598153,10.6999948 L67.0726958,9.5876911 L67.0726958,34.3500995 L59.4598153,34.3500995 L59.4598153,31.0124555 C58.3288356,33.4296545 56.3443246,34.6372461 53.5064664,34.6372461 C51.870516,34.6372461 50.3856331,34.2066178 49.0505281,33.3453613" id="Fill-5"></path>
                <path d="M70.5617653,32.7218115 C69.4433132,31.4422042 68.883995,29.6892723 68.883995,27.4642984 L68.883995,9.05558115 L76.4970597,7.94291099 L76.4970597,26.9261047 C76.4970597,27.5958691 76.6593652,28.0807382 76.9839761,28.3794293 C77.3087712,28.6788534 77.87988,28.8280157 78.6978552,28.8280157 C79.2988091,28.8280157 79.888525,28.684534 80.4657133,28.3973874 L80.7182908,33.4216283 C79.1066586,34.2354241 77.3025074,34.6418639 75.30639,34.6418639 C73.2616362,34.6418639 71.6802175,34.0019686 70.5617653,32.7218115" id="Fill-7"></path>
                <path d="M93.7067423,22.7272042 C93.3218886,21.219822 92.4079303,20.4661309 90.9648673,20.4661309 C90.0988084,20.4661309 89.4132936,20.7891937 88.9081386,21.4351361 C88.4031679,22.0812618 88.1380628,22.9188796 88.1144816,23.9472565 L93.7067423,22.7272042 Z M85.8956317,33.4397696 C84.344058,32.6382513 83.1353338,31.5374921 82.2694592,30.1378586 C81.4034003,28.7384084 80.9706472,27.1536963 80.9706472,25.3828063 C80.9706472,23.5650052 81.4153752,21.9498743 82.305568,20.5379634 C83.1950239,19.1266021 84.3982212,18.0381204 85.9135019,17.2721518 C87.4287825,16.5069162 89.1122639,16.1237487 90.9648673,16.1237487 C92.7447002,16.1237487 94.2660604,16.5129634 95.5289478,17.2901099 C96.791651,18.0678063 97.7354544,19.1203717 98.3612791,20.4481728 C98.9863669,21.7761571 99.2991872,23.2655812 99.2991872,24.9162618 C99.2991872,25.3468901 99.2750532,25.6580419 99.2271538,25.8493508 L88.4031679,27.2489843 C88.6916699,28.0866021 89.1609003,28.6907644 89.8101221,29.061288 C90.4597123,29.4325445 91.3132436,29.6178063 92.3718215,29.6178063 C94.0072192,29.6178063 95.7752615,29.1992723 97.6755801,28.3614712 L98.5775635,33.1703979 C96.3406593,34.1518639 93.8871021,34.6418639 91.2172605,34.6418639 C89.2205904,34.6418639 87.4468369,34.2414712 85.8956317,33.4397696 Z" id="Fill-9"></path>
                <path d="M113.433522,7.49846597 C113.217791,11.3732042 109.8862,14.3414241 105.991606,14.1297749 C102.095723,13.9159267 99.1099291,10.6030209 99.3249239,6.72681675 C99.5397345,2.85244503 102.869115,-0.116874346 106.766656,0.0962408377 C110.66346,0.308623037 113.64778,3.62244503 113.433522,7.49846597" id="Fill-11"></path>
            </g>
            <g id="Group-16" transform="translate(99.343434, 0.000000)">
                <mask id="mask-2" fill="white">
                    <use xlink:href="#path-1"></use>
                </mask>
                <g id="Clip-15"></g>
                <polygon id="Fill-14" fill="#FFFFFF" mask="url(#mask-2)" points="-12.1933884 38.0957006 34.7610652 38.0957006 34.7610652 -9.41558469 -12.1933884 -9.41558469"></polygon>
            </g>
            <g id="Group-19" transform="translate(99.343434, 0.000000)">
                <mask id="mask-4" fill="white">
                    <use xlink:href="#path-3"></use>
                </mask>
                <g id="Clip-18"></g>
                <polygon id="Fill-17" fill="#FFFFFF" mask="url(#mask-4)" points="-5.20238751 19.6191 19.3182736 19.6191 19.3182736 -5.19253691 -5.20238751 -5.19253691"></polygon>
            </g>
            <path d="M123.728708,15.5132652 C123.557427,18.6323169 120.889938,21.022539 117.770371,20.8497807 C114.652278,20.6794193 112.262454,18.0106084 112.432813,14.8922942 C112.603357,11.7715831 115.272505,9.38283598 118.391334,9.55411925 C121.511639,9.72466502 123.899989,12.3923697 123.728708,15.5132652" id="Fill-20" fill="#FFFFFF"></path>
            <g id="Group-24" transform="translate(112.424242, 9.545455)">
                <mask id="mask-6" fill="white">
                    <use xlink:href="#path-5"></use>
                </mask>
                <g id="Clip-23"></g>
                <polygon id="Fill-22" fill="#FFFFFF" mask="url(#mask-6)" points="-25.4431481 28.1003584 21.9025926 28.1003584 21.9025926 -18.5511632 -25.4431481 -18.5511632"></polygon>
            </g>
            <g id="Group-27" transform="translate(112.424242, 9.545455)">
                <mask id="mask-8" fill="white">
                    <use xlink:href="#path-7"></use>
                </mask>
                <g id="Clip-26"></g>
                <polygon id="Fill-25" fill="#FFFFFF" mask="url(#mask-8)" points="-5.13722222 16.4892538 16.747037 16.4892538 16.747037 -5.07412186 -5.13722222 -5.07412186"></polygon>
            </g>
            <path d="M113.477415,24.1243156 C113.332368,26.757195 111.082172,28.7723632 108.452463,28.6291827 C105.820327,28.4818952 103.802543,26.2326352 103.946657,23.6014359 C104.092452,20.9702366 106.342648,18.9533883 108.974597,19.0982489 C111.606732,19.2432962 113.62321,21.4947964 113.477415,24.1243156" id="Fill-28" fill="#FFFFFF"></path>
            <g id="Group-32" transform="translate(103.939394, 18.737374)">
                <mask id="mask-10" fill="white">
                    <use xlink:href="#path-9"></use>
                </mask>
                <g id="Clip-31"></g>
                <polygon id="Fill-30" fill="#FFFFFF" mask="url(#mask-10)" points="-16.7766871 18.9073427 30.1551923 18.9073427 30.1551923 -28.0245367 -16.7766871 -28.0245367"></polygon>
            </g>
            <g id="Group-35" transform="translate(103.939394, 18.737374)">
                <mask id="mask-12" fill="white">
                    <use xlink:href="#path-11"></use>
                </mask>
                <g id="Clip-34"></g>
                <polygon id="Fill-33" fill="#FFFFFF" mask="url(#mask-12)" points="-5.09598776 14.7356119 14.7196416 14.7356119 14.7196416 -5.07983392 -5.09598776 -5.07983392"></polygon>
            </g>
        </g>
    </g>
</svg>