<?xml version="1.0" encoding="UTF-8" standalone="no"?>
<svg xmlns="http://www.w3.org/2000/svg" xml:space="preserve"
     height="49.812" viewBox="0 0 108.3501 49.812501" width="108.35" version="1.1">
    <g transform="matrix(1.25 0 0 -1.25 -509.53 402.78)">
    <g transform="matrix(.25 0 0 .25 338.38 226.89)">
        <path fill="#fff"
              d="m222.73 97.416-3.2891 3.7207c-1.41 1.605-2.1523 3.1324-2.1523 5.4824v0.39063h-2.2715l-1.1758 1.3711v0.66406h3.4473v14.449l-2.7422 0.39063 0.19726 1.373 4.502-0.11914 6.0684 0.11914 0.19531-1.4902-4.502-0.27344v-14.449h4.8945v-1.8398h-4.8945v-1.1738c0-2.5438 0.27351-3.6801 0.82226-4.4238l0.74414-1.0586h5.0898v-3.1328h-4.9336zm-222.53 0.354-0.19531 1.371l3.5254 0.50781v15.898c0 6.225 2.7387 10.375 10.451 10.375 7.7925-1.8025 9.8691-5.2088 9.8691-10.299v-15.975l3.3281-0.50781-0.19727-1.3711-4.5801 0.11719-5.0117-0.11719-0.19531 1.3711 3.5234 0.50781v16.367c0 5.0113-2.2725 7.7539-6.3438 7.7539-4.4638 0-6.5371-2.781-6.5371-7.6348v-16.486l3.3262-0.50781-0.19531-1.3711-5.3633 0.11719-5.4043-0.11719zm57.373 0.23438-2.8203 0.19727-0.39062 1.8789 0.23438 2.1934 1.0566 0.23437 2.7812-0.23437 0.42969-1.8809-0.19531-2.1914-1.0957-0.19727zm83.24 0-2.8184 0.19727-0.39257 1.8789 0.23632 2.1934 1.0547 0.23437 2.7812-0.23437 0.43164-1.8809-0.19726-2.1914-1.0957-0.19727zm10.914 3.916-2.5449 2.5469v2.543h-2.5449l-1.3711 1.3711v0.66602h3.7969v11.666c0 3.525 0.58766 5.0918 4.9727 5.0918l4.582-2.5449-0.66601-1.332c-1.0962 0.5475-1.9575 0.93946-3.0938 0.93946-1.6438 0-2.0742-1.2127-2.0742-2.3477v-11.473h5.873v-1.7617h-5.9121v-5.3652h-1.0176zm-58.939 4.3066c-5.365 1.175-8.8477 4.2695-8.8477 10.064 0 6.1462 4.2671 9.5137 9.0059 9.5137 2.505-0.705 4.9716-1.8 6.8516-3.0938l-0.62695-1.4883c-1.4488 0.90125-3.3295 1.6445-4.8945 1.6445-4.1125 0-6.5-3.1723-6.5-7.6348h11.941v-1.6445c0-4.1112-1.7609-7.3613-6.9297-7.3613zm33.539 0c-4.5412 0.97875-7.0859 2.5068-7.0859 5.248 0 2.1912 1.6053 3.6798 3.2891 4.541l3.0938 1.6055c2.035 1.0575 2.8574 1.7225 2.8574 3.25 0 1.645-1.0578 2.9746-3.1328 2.9746-1.2525 0-2.3865-0.42976-3.209-0.97851l-1.332-3.248h-2.5058l0.74414 4.4238c1.0175 0.5875 3.5612 1.7617 5.9512 1.7617 4.5025-0.97875 7.3613-2.3102 7.3613-5.834 0-2.2312-1.0572-3.7195-3.6797-5.0508l-3.0156-1.5273c-1.7625-0.9-2.7402-1.685-2.7402-2.9375 0-1.4875 1.4471-2.3086 2.9746-2.3086 1.4088 0 2.5834 0.62633 2.9746 0.86133l0.90234 2.8965h2.0742v-3.9141c-1.135-0.8225-3.4065-1.7637-5.5215-1.7637zm76.91 0c-6.0688 1.0188-9.6328 4.347-9.6328 10.221 0 5.325 3.5242 9.3574 8.7305 9.3574 6.07-0.97875 9.6328-4.3459 9.6328-10.18 0-5.325-3.523-9.3984-8.7305-9.3984zm-162.78 0.002-5.793 3.7969-0.19726-3.2891-1.6816 0.11719-4.6992 1.2129 0.19531 1.3711 2.7402-0.23438v14.291l-2.7402 0.39258 0.19531 1.3691 4.5039-0.11719 3.7188 0.11719 0.19531-1.3691-2.1523-0.39258v-11.59l1.1738-0.78321c1.3312-0.9 2.7023-1.7598 4.0723-1.7598 1.6838 0 2.5859 0.89929 2.5859 2.9356v11.197l-1.959 0.39258 0.19531 1.3691 3.7598-0.11719 4.502 0.11719 0.19531-1.3691-2.9746-0.39258v-10.885c0-4.6988-0.82344-6.3809-5.8359-6.3809zm72.662 0.19531-4.4648 5.4805-0.0762-5.168-1.5664 0.11719-4.6992 1.2129 0.19532 1.3711 2.7422-0.23633v14.293l-2.7422 0.39258 0.19531 1.3711 4.3848-0.11914 5.6797 0.11914 0.19531-1.4902-4.1113-0.39063v-9.3184l0.78125-0.93945c1.0575-1.2925 2.7807-2.585 3.7207-2.7812h2.8984v-3.9141h-3.1328zm-54.646 0.27344-1.957 0.15625-4.6992 1.2129 0.19727 1.3711 2.7383-0.23438v14.291l-2.7383 0.39258 0.19336 1.3691 4.5039-0.11719 4.502 0.11719 0.19531-1.3691-2.9355-0.39258v-16.797zm83.24 0-1.957 0.15625-4.6992 1.2129 0.19532 1.3711 2.7422-0.23438v14.291l-2.7422 0.39258 0.19726 1.3691 4.502-0.11719 4.502 0.11719 0.19726-1.3691-2.9375-0.39258v-16.797zm-79.492 0.0781-0.19531 1.3711 2.4277 0.39063 6.8125 17.268 2.8574-1.1758 6.4219-16.092 2.5059-0.39063-0.19531-1.3711-3.25 0.11719-3.4453-0.11719-0.19531 1.3711 1.8008 0.39063-4.7383 14.174-0.3125-2.7012-4.2695-11.473 2.584-0.39063-0.19531-1.3711-4.1113 0.11719-4.502-0.11719zm98.607 0-0.19531 1.3711 2.4258 0.39063 6.3828 16.523 1.5664-0.47071-3.877 5.9121h-3.3672v3.916h4.6602l4.3848-9.8672 6.1484-16.014 2.5059-0.39063-0.19726-1.3711-3.25 0.11719-3.4453-0.11719-0.19532 1.3711 1.8008 0.39063-4.6602 14.174-0.3125-2.7012-4.1484-11.473 2.582-0.39063-0.19531-1.3711-4.1113 0.11719-4.502-0.11719zm41.428 1.3711c3.4075 0 5.7949 3.3283 5.7949 8.3008 0 4.2288-1.6051 7.4375-4.7363 7.4375-3.485 0-5.7969-3.796-5.7969-8.2598 0-4.2675 1.567-7.4785 4.7383-7.4785zm-110.21 0.0371c3.015 0 3.6035 2.0768 3.6035 5.0918l-7.832 0.39063c0.3125-3.25 1.8398-5.4824 4.2285-5.4824zm-18.217 31.088c-15.806 0-26.629 10.539-26.629 25.99s10.823 25.988 26.629 25.988c6.6938 0 12.391-1.7809 17.518-5.5547l-3.918-5.5527c-4.2012 2.9912-8.8288 4.5566-13.812 4.5566-11.464 0-19.438-7.9025-19.438-19.438 0-11.535 7.9738-19.439 19.438-19.439 4.9838 0 9.6112 1.5654 13.812 4.5566l3.918-5.5547c-5.1262-3.7738-10.824-5.5527-17.518-5.5527zm118.42 0c-15.806 0-26.629 10.539-26.629 25.99s10.823 25.988 26.629 25.988c6.6938 0 12.389-1.7809 17.516-5.5547l-3.916-5.5527c-4.2 2.9912-8.8288 4.5566-13.812 4.5566-11.464 0-19.439-7.9025-19.439-19.438 0-11.535 7.9757-19.439 19.439-19.439 4.9838 0 9.6125 1.5654 13.812 4.5566l3.916-5.5547c-5.1262-3.7738-10.822-5.5527-17.516-5.5527zm165.09 0-23.285 50.91h7.1914l6.1953-13.955h20.506l6.1953 13.955h7.1914l-23.283-50.91h-0.71094zm-241.22 0.35547v50.557h6.4082v-28.127c0-4.0588-0.21312-6.9779-0.64062-8.9004l0.21484-0.0703c0.7125 1.5662 2.2785 3.844 3.916 5.5527l30.404 32.256h0.56835v-50.555h-6.4082v28.055c0 4.13 0.28539 7.0482 0.71289 8.9707l-0.28515 0.0703c-0.64125-1.5662-2.2073-3.844-3.916-5.5527l-30.332-32.256h-0.64258zm118.43 0v50.557h6.4082v-28.127c0-4.0588-0.21437-6.9779-0.64062-8.9004l0.21289-0.0703c0.71125 1.5662 2.2785 3.844 3.916 5.5527l30.402 32.256h0.57227v-50.555h-6.4082v28.055c0 4.13 0.28344 7.0482 0.71094 8.9707l-0.28516 0.0703c-0.64125-1.5662-2.2073-3.844-3.916-5.5527l-30.334-32.256h-0.63867zm52.344 0v50.557h6.4102v-28.127c0-4.0588-0.21508-6.9779-0.64258-8.9004l0.21484-0.0703c0.71125 1.5662 2.2785 3.844 3.916 5.5527l30.404 32.256h0.56836v-50.555h-6.4082v28.055c0 4.13 0.28539 7.0482 0.71289 8.9707l-0.28515 0.0703c-0.64-1.5662-2.2073-3.844-3.916-5.5527l-30.332-32.256h-0.64258zm-188.5 0.71289v49.842h6.4082v-49.842h-6.4082zm118.42 0v49.842h6.4082v-49.842h-6.4082zm160.61 0v6.123h12.816c0.85375 0 1.2825-0.001 1.7812-0.21484l0.14258 0.14257c-0.1425 0.35626-0.21484 0.92649-0.21484 1.709v42.082h6.4082v-42.082c0-0.7825-0.0704-1.3527-0.21289-1.709l0.0703-0.14257c0.4975 0.21375 0.99782 0.21484 1.8516 0.21484h12.746v-6.123h-35.389zm41.574 0v49.842h6.4082v-49.842h-6.4082zm-61.445 10.182h0.28515c0.1425 1.2812 0.785 3.2754 1.7812 5.8379l4.4141 10.396c0.92625 2.2075 1.637 3.3461 2.207 4.0586l-0.0703 0.0723c-0.64125-0.0712-1.7808-0.14258-3.9883-0.14258h-8.9707c-2.2075 0-3.3483 0.0713-3.9883 0.14258l-0.0703-0.0723c0.57-0.7125 1.2808-1.8511 2.207-4.0586l4.4141-10.396c0.9975-2.5625 1.638-4.5566 1.7793-5.8379z"
              transform="matrix(.8 0 0 -.8 280 378)"/>
        <path d="m234.68 0v6.9863h12.543v60.873c0 24.389 15.897 37.055 40.096 37.455 9.2538 10.288 22.351 17.469 37.229
        19.59 1.1738 0.17375 2.2912 0.29375 3.2188 0.375v-6.9375c-1.1962-0.20625-2.0273-0.40039-2.0273-0.40039-22.799-5.8025-39.611-25.207-39.611-50.082 0-19.059 11.143-34.471 27.602-43.111v-9.3652c-23.654 7.7462-40.617 27.745-40.617 52.477 0 12.23 3.1886 21.786 8.7461 30.344-14.628-2.57-20.932-12.774-20.932-30.344v-67.859h-0.0156-26.23zm69.131 0.037109v6.9824h23.936v-6.9824h-23.936zm31.71 12.162c-2.6425 0-5.2466 0.15469-7.8066 0.46094l0.0508 55.199c0 10.736-1.5499 17.072-7.0449 23.828-6.045-6.67-7-14.246-7-23.828 0-5.105 0.008-29.393 0.008-29.393-8.0225 7.76-13.039 17.4-13.039 29.393 0 25.09 19.374 44.684 43.018 44.684 8.1138 0 17.474-1.9839 24.303-6.6289l-1.7226-2.5723c-9.2175 4.705-27.929 5.7976-39.361-4.9023 9.6662-7.1338 14.541-16.264 14.541-30.58v-49.107c16.189 0 25.897 9.6291 26.42 20.664l6.0215 1.1836 4.2188-24.566-7.1699-1.3945-0.875 5.2422c-12.931-6.5038-23.781-7.6816-34.561-7.6816z"
              transform="matrix(.8 0 0 -.8 280 378)" fill="#fff"/>
    </g>
</g>
</svg>
