<svg version="1.2" xmlns="http://www.w3.org/2000/svg" viewBox="0 0 592 179" width="592" height="179">
	<title>WDTech_logo-White-ai</title>
	<style>
		.s0 { fill: #ffffff } 
	</style>
	<g id="Layer 2">
	</g>
	<g id="Layer 1">
		<g id="&lt;Group&gt;">
			<g id="&lt;Group&gt;">
				<g id="&lt;Group&gt;">
					<path id="&lt;Compound Path&gt;" class="s0" d="m42.5 46.3c-0.6-1.9 0.5-3.2 2.4-3.2h15.6c1.1 0 2.1 0.9 2.4 1.8l11.5 45.3h0.5l20.7-47c0.4-0.8 1.2-1.5 2.3-1.5h2.4c1.2 0 2 0.7 2.3 1.5l20.7 47h0.5l11.5-45.3c0.3-0.9 1.4-1.8 2.4-1.8h15.7c1.8 0 2.9 1.3 2.4 3.2l-25.3 89.8c-0.3 1-1.3 1.8-2.4 1.8h-2.1c-1 0-1.9-0.6-2.3-1.4l-24.5-54.7h-0.4l-24.3 54.7c-0.4 0.8-1.3 1.4-2.2 1.4h-2.2c-1.1 0-2.1-0.8-2.4-1.8z"/>
					<path id="&lt;Compound Path&gt;" fill-rule="evenodd" class="s0" d="m170.1 45.6c0-1.3 1-2.5 2.4-2.5h32.6c25.7 0 46.8 21 46.8 46.6 0 25.9-21.1 46.9-46.8 46.9h-32.6c-1.4 0-2.4-1.2-2.4-2.5zm33.6 71.2c15.1 0 26.1-11.9 26.1-27.2 0-15-11-26.9-26.1-26.9h-12.8v54.1z"/>
				</g>
				<g id="&lt;Group&gt;">
					<path id="&lt;Path&gt;" class="s0" d="m449.6 50.9c9.1 0 18.7 4 25.7 10.1 1.3 1.3 2.4 1.5 3.5 0.1l3.6-3.6c1.1-1.1 0.9-2.7-0.2-3.8-9.1-7.8-18.9-12.5-32.5-12.5-24.1 0-44 17.5-47.8 40.5-0.3 1.4 0.8 2.7 2.3 2.7h6.3c1.1 0 2-0.8 2.2-1.9 3.2-17.6 18.1-31.6 36.9-31.6z"/>
					<path id="&lt;Path&gt;" class="s0" d="m482.5 121.3l-4-3.6c-0.8-0.5-1.9-0.7-3.2 0.4-7.2 5.4-14 10.1-25.7 10.1-19.3 0-34.4-14.7-37.1-32.8-0.2-1.1-1.1-2-2.2-2h-6.4c-1.4 0-2.5 1.2-2.3 2.6 3.1 23.9 23.4 42 48.1 42 12 0 23.5-4.2 32.7-13 0.9-1 1.2-2.9 0.1-3.7z"/>
				</g>
				<g id="&lt;Group&gt;">
					<path id="&lt;Path&gt;" class="s0" d="m500.4 45.6c0-1.7 1.4-3 3-3h4.4c1.6 0 3 1.3 3 3v35.8c0 1.7-1.4 3-3 3h-4.4c-1.6 0-3-1.3-3-3z"/>
					<path id="&lt;Path&gt;" class="s0" d="m510.8 93.4"/>
				</g>
				<path id="&lt;Path&gt;" class="s0" d="m344.6 89c0-2.5 2.1-4.6 4.6-4.6h22.1c2.5 0 4.6 2.1 4.6 4.6 0 2.5-2.1 4.6-4.6 4.6h-22.1c-2.5 0-4.6-2.1-4.6-4.6z"/>
				<g id="&lt;Group&gt;">
					<path id="&lt;Path&gt;" class="s0" d="m560.1 134.1c0 1.3 1.1 2.6 2.6 2.6h5.2c1.4 0 2.6-1.2 2.6-2.6v-40.6h-10.4z"/>
					<path id="&lt;Path&gt;" class="s0" d="m570.5 84.4v-39.3c0-1.4-1.2-2.5-2.6-2.5h-5.2c-1.5 0-2.6 1.2-2.6 2.5v39.3"/>
				</g>
				<g id="&lt;Group&gt;">
					<path id="&lt;Path&gt;" class="s0" d="m316.1 42.6h-57c-1.4 0-2.5 1.2-2.5 2.5v3.9c0 1.4 1.1 2.6 2.5 2.6h23.4v30.5c0 1.1 1 2.1 2.1 2.1h6c1.2 0 2.1-1 2.1-2.1v-30.5h23.4c1.5 0 2.6-1.2 2.6-2.6v-3.9c0-1.3-1.1-2.5-2.6-2.5z"/>
					<path id="&lt;Path&gt;" class="s0" d="m282.5 95.8c0-1.1 0.9-2 2-2h6.2c1.2 0 2 0.9 2 2v38.9c0 1.1-0.8 2-2 2h-6.2c-1.1 0-2-0.9-2-2z"/>
					<path id="&lt;Path&gt;" class="s0" d="m388.4 127.7h-45.2v-31.7c0-1.4-1.1-2.5-2.4-2.5h-5.5c-1.3 0-2.4 1.1-2.4 2.5v38.1c0 1.3 1.1 2.6 2.5 2.6h53c1.5 0 2.5-1.3 2.5-2.6v-3.9c0-1.3-1-2.5-2.5-2.5z"/>
					<path id="&lt;Path&gt;" class="s0" d="m388.4 42.6h-53c-1.4 0-2.5 1.2-2.5 2.5v36.8c0 1.4 1.1 2.6 2.5 2.6h5.3c1.4 0 2.5-1.1 2.5-2.6v-30.3h45.2c1.5 0 2.5-1.2 2.5-2.6v-3.9c0-1.3-1-2.5-2.5-2.5z"/>
					<path id="&lt;Path&gt;" class="s0" d="m500.4 96.4c0-1.6 1.4-3 3-3h4.4c1.6 0 3 1.4 3 3v37.3c0 1.6-1.4 3-3 3h-4.4c-1.6 0-3-1.4-3-3z"/>
				</g>
				<g id="&lt;Group&gt;">
					<path id="&lt;Path&gt;" class="s0" d="m4.9 174.9h287.6v-24.9c0-1.6-1.3-2.8-2.8-2.8h-4.3c-1.6 0-2.9 1.2-2.9 2.8v14.9h-267.6v-68.2c0-1.4-1.2-2.6-2.7-2.6h-4.6c-1.5 0-2.7 1.2-2.7 2.6z"/>
					<path id="&lt;Path&gt;" class="s0" d="m285.1 32h4.8c1.4 0 2.6-1.2 2.6-2.6v-25.8h-287.6v77.7c0 1.6 1.3 2.9 2.9 2.9h4.2c1.6 0 2.9-1.3 2.9-2.9v-67.8h267.6v15.9c0 1.4 1.2 2.6 2.6 2.6z"/>
				</g>
			</g>
			<path id="&lt;Path&gt;" class="s0" d="m513.4 88.9c0-2.5 2.1-4.6 4.7-4.6h64.4c2.5 0 4.6 2.1 4.6 4.6 0 2.6-2.1 4.7-4.6 4.7h-64.4c-2.6 0-4.7-2.1-4.7-4.7z"/>
			<path id="&lt;Path&gt;" class="s0" d="m298.6 93.6c-2.6 0-4.6-2.1-4.6-4.6 0-2.5 2-4.6 4.6-4.6 2.5 0 4.5 2.1 4.5 4.6 0 2.5-2 4.6-4.5 4.6z"/>
			<path id="&lt;Path&gt;" class="s0" d="m418.5 93.6c-2.6 0-4.6-2.1-4.6-4.6 0-2.5 2-4.6 4.6-4.6 2.5 0 4.5 2.1 4.5 4.6 0 2.5-2 4.6-4.5 4.6z"/>
			<path id="&lt;Path&gt;" class="s0" d="m20.2 93.6c-2.6 0-4.6-2.1-4.6-4.6 0-2.5 2-4.6 4.6-4.6 2.5 0 4.6 2.1 4.6 4.6 0 2.5-2.1 4.6-4.6 4.6z"/>
		</g>
	</g>
</svg>