<?xml version="1.0" encoding="UTF-8" standalone="no"?>
<svg width="114px" height="40px" viewBox="0 0 114 40" version="1.1" xmlns="http://www.w3.org/2000/svg"
     xmlns:xlink="http://www.w3.org/1999/xlink">
    <!-- Generator: Sketch 3.8.3 (29802) - http://www.bohemiancoding.com/sketch -->
    <title>logo-nav-dreescustomlogo-114x40-default</title>
    <desc>Created with Sketch.</desc>
    <defs>
        <polygon id="path-1" points="0 0 114 0 114 40 0 40"></polygon>
    </defs>
    <g id="Symbols" stroke="none" stroke-width="1" fill="none" fill-rule="evenodd">
        <g id="download" transform="translate(-1.000000, -4194.000000)">
            <g id="logo-nav-dreescustomlogo-114x40-default" transform="translate(1.000000, 4194.000000)">
                <g id="Clipped">
                    <mask id="mask-2" fill="white">
                        <use xlink:href="#path-1"></use>
                    </mask>
                    <g id="hza"></g>
                    <g id="Group" mask="url(#mask-2)">
                        <path
                                d="M67.532,32.633 L64.85,32.633 L64.85,35.051 L62.443,35.051 L62.443,28.985 L64.849,28.985 L64.849,31.1 L67.531,31.1 L67.531,28.984 L69.931,28.984 L69.931,35.051 L67.531,35.051 L67.532,32.633 Z M74.14,32.018 C74.14,30.785 74.76,30.302 75.738,30.302 C76.723,30.302 77.341,30.784 77.341,32.018 C77.341,33.25 76.725,33.733 75.739,33.733 C74.759,33.733 74.141,33.25 74.141,32.018 L74.14,32.018 Z M71.591,32.018 C71.591,35.164 74.284,35.265 75.738,35.265 C77.198,35.265 79.891,35.163 79.891,32.018 C79.891,28.876 77.197,28.768 75.738,28.768 C74.284,28.768 71.591,28.876 71.591,32.018 L71.591,32.018 Z"
                                id="Shape"
                                fill="#FFFFFF"></path>
                        <path
                                d="M81.633,28.983 L85,28.983 L86,32.507 L86.02,32.507 L87.01,28.983 L90.385,28.983 L90.385,35.051 L88.212,35.051 L88.212,30.718 L88.196,30.718 L86.913,35.052 L85.095,35.052 L83.823,30.719 L83.808,30.719 L83.808,35.053 L81.633,35.053 L81.633,28.983 Z M92.664,28.983 L99.114,28.983 L99.114,30.463 L95.06,30.463 L95.06,31.28 L98.827,31.28 L98.827,32.754 L95.06,32.754 L95.06,33.57 L99.114,33.57 L99.114,35.05 L92.664,35.05 L92.664,28.983 Z M102.246,32.475 C101.073,32.297 100.586,31.615 100.586,30.769 C100.586,29.196 102.128,28.766 104.099,28.766 C106.804,28.766 107.917,29.48 107.999,30.76 L105.209,30.76 C105.209,30.514 105.069,30.362 104.842,30.277 C104.636,30.185 104.362,30.147 104.098,30.147 C103.383,30.147 103.136,30.325 103.136,30.58 C103.136,30.752 103.208,30.86 103.448,30.89 L106.321,31.318 C107.526,31.496 108.271,32.058 108.271,33.088 C108.271,34.572 107.061,35.265 104.371,35.265 C102.523,35.265 100.511,35.005 100.503,33.225 L103.393,33.225 C103.403,33.428 103.475,33.565 103.647,33.66 C103.827,33.744 104.085,33.788 104.462,33.788 C105.208,33.788 105.415,33.582 105.415,33.298 C105.415,33.116 105.305,32.942 104.983,32.884 L102.243,32.474 L102.246,32.475 Z"
                                id="Shape"
                                fill="#FFFFFF"></path>
                        <path
                                d="M0.483,25.176 L0.483,34.756 C0.76,34.244 1.148,33.739 1.691,33.258 C3.911,31.304 8.595,32.29 10.024,28.841 L10.024,25.177 L0.483,25.177 L0.483,25.176 Z M10.178,28.855 C9.18,33.491 5.292,32.577 3.955,34.571 C2.889,36.158 4.072,38.029 4.969,39.076 L13.436,39.076 L13.436,28.856 L10.177,28.856 L10.178,28.855 Z"
                                id="Shape"
                                fill="#fff"></path>
                        <path
                                d="M18.677,3.232 L22.104,3.232 C27.03,3.232 30.136,5.842 30.136,12.465 C30.136,20.705 26.468,23.138 21.646,23.138 L18.676,23.138 L18.676,3.232 L18.677,3.232 Z M13.437,1.189 L13.437,25.175 L23.224,25.175 C30.384,25.175 35.934,20.453 35.934,12.497 C35.934,6.724 32.864,1.477 25.392,1.187 L13.437,1.187 L13.437,1.189 Z M41.778,5.312 L41.778,1.307 L37.35,1.307 L37.35,25.194 L41.78,25.194 L41.78,12.208 C41.78,9.644 41.858,8.108 43.5,6.231 C44.165,5.471 45.11,5.105 46.39,5.105 C47.736,5.105 48.466,5.803 48.472,5.803 L48.857,6.171 L48.943,5.651 L49.651,1.361 L49.458,1.287 C48.954,1.055 48.501,1.017 47.841,1.017 C45.743,1.017 43.651,2.507 41.779,5.313 L41.778,5.312 Z M48.856,13.176 C48.856,20.623 53.476,25.428 60.636,25.428 C63.46,25.428 66.57,24.368 69.169,22.516 L69.315,22.416 L69.385,18.851 L68.759,19.451 C66.561,21.569 64.164,22.684 61.846,22.684 C59.45,22.684 57.424,21.867 55.999,20.328 C54.556,18.758 53.786,16.563 53.786,14.044 C53.786,13.814 53.806,13.58 53.819,13.346 L60.299,13.346 C63.541,13.346 66.839,13.394 70.115,13.492 L70.457,13.508 L70.482,13.155 C70.708,9.327 69.737,6.14 67.682,3.955 C65.844,2.009 63.232,0.925 60.297,0.925 C53.34,0.925 48.855,5.739 48.855,13.178 L48.856,13.176 Z M60.3,3.152 C63.913,3.152 65.772,5.672 65.978,10.847 L53.87,10.847 C54.236,7.051 56.096,3.152 60.3,3.152 L60.3,3.152 Z M71.605,13.176 C71.605,20.623 76.23,25.428 83.382,25.428 C86.208,25.428 89.317,24.368 91.916,22.516 L92.068,22.416 L92.135,18.851 L91.509,19.451 C89.307,21.568 86.909,22.683 84.594,22.683 C82.197,22.683 80.171,21.866 78.747,20.327 C77.304,18.757 76.534,16.562 76.534,14.043 C76.534,13.813 76.551,13.579 76.566,13.345 L83.039,13.345 C86.283,13.345 89.595,13.393 92.854,13.491 L93.206,13.506 L93.231,13.153 C93.454,9.325 92.493,6.138 90.426,3.953 C88.586,2.007 85.966,0.923 83.038,0.923 C76.095,0.925 71.603,5.738 71.603,13.177 L71.605,13.176 Z M83.042,3.152 C86.666,3.152 88.522,5.672 88.725,10.847 L76.615,10.847 C76.985,7.051 78.842,3.152 83.042,3.152 L83.042,3.152 Z M96.252,3.164 C94.897,4.522 94.179,6.368 94.179,8.524 C94.179,13.282 97.579,14.214 100.582,15.029 C103.242,15.761 105.548,16.387 105.548,19.314 C105.548,21.832 103.171,23.394 100.968,23.394 C98.588,23.394 96.683,21.638 95.698,19.997 L95.186,19.109 L93.846,23.769 L94.001,23.861 C95.615,24.859 97.969,25.471 100.141,25.471 C104.521,25.471 109.237,23.021 109.237,17.659 C109.237,13.337 105.875,12.253 102.909,11.294 C100.214,10.414 97.871,9.652 97.871,6.849 C97.871,5.772 98.251,4.825 98.984,4.119 C99.762,3.375 100.861,2.966 102.01,3.009 C104.735,3.111 106.445,6.594 106.47,6.635 L106.748,7.219 L106.903,6.586 C107.198,5.427 108,2.67 108,2.643 L108.062,2.456 L107.884,2.366 C107.766,2.312 104.886,0.962 102.238,0.944 C99.848,0.924 97.714,1.718 96.252,3.164 L96.252,3.164 Z"
                                id="Shape"
                                fill="#FFFFFF"></path>
                        <path
                                d="M109.678,34.262 C109.678,34.589 109.92,34.72 110.22,34.72 C110.55,34.72 110.672,34.558 110.672,34.397 C110.672,34.231 110.582,34.167 110.495,34.132 C110.345,34.075 110.151,34.036 109.857,33.956 C109.492,33.856 109.384,33.636 109.384,33.414 C109.384,32.986 109.78,32.784 110.164,32.784 C110.611,32.784 110.984,33.022 110.984,33.468 L110.611,33.468 C110.593,33.193 110.409,33.091 110.151,33.091 C109.976,33.091 109.758,33.154 109.758,33.371 C109.758,33.519 109.861,33.604 110.012,33.645 C110.046,33.655 110.519,33.777 110.63,33.81 C110.91,33.892 111.046,34.13 111.046,34.354 C111.046,34.832 110.621,35.024 110.196,35.024 C109.708,35.024 109.312,34.79 109.303,34.261 L109.681,34.261 L109.678,34.262 Z M111.298,32.836 L111.825,32.836 L112.415,34.51 L112.42,34.51 L112.995,32.836 L113.517,32.836 L113.517,34.974 L113.159,34.974 L113.159,33.324 L113.153,33.324 L112.561,34.974 L112.251,34.974 L111.659,33.324 L111.653,33.324 L111.653,34.974 L111.297,34.974 L111.298,32.836 Z"
                                id="Shape"
                                fill="#FFFFFF"></path>
                    </g>
                </g>
            </g>
        </g>
    </g>
</svg>
